<mxfile host="app.diagrams.net" modified="2023-08-02T19:38:38.740Z" agent="Mozilla/5.0 (Windows NT 10.0; Win64; x64) AppleWebKit/537.36 (KHTML, like Gecko) Chrome/115.0.0.0 Safari/537.36" etag="fGkY8OqNq9GB8ps6jerD" version="21.6.6" type="google">
  <diagram name="Página-1" id="sDsESr9fMtDP9PHvI-jF">
    <mxGraphModel grid="0" page="0" gridSize="10" guides="1" tooltips="1" connect="1" arrows="1" fold="1" pageScale="1" pageWidth="827" pageHeight="1169" math="0" shadow="0">
      <root>
        <mxCell id="0" />
        <mxCell id="1" parent="0" />
        <mxCell id="4G-LfMSE1hTsg_OoOyKA-3" value="Clínica" style="rounded=0;whiteSpace=wrap;html=1;fontSize=12;glass=0;strokeWidth=1;shadow=0;fillColor=#e1d5e7;strokeColor=#9673a6;" vertex="1" parent="1">
          <mxGeometry x="130" y="290" width="224" height="40" as="geometry" />
        </mxCell>
        <mxCell id="kGNBZEPiZM6OQoO1F5po-17" style="edgeStyle=orthogonalEdgeStyle;rounded=0;orthogonalLoop=1;jettySize=auto;html=1;exitX=1;exitY=0.25;exitDx=0;exitDy=0;endArrow=none;endFill=0;entryX=0;entryY=0.5;entryDx=0;entryDy=0;fillColor=#e1d5e7;strokeColor=#000000;" edge="1" parent="1" target="mRBfU09sYX9DR_tW5EZT-17">
          <mxGeometry relative="1" as="geometry">
            <mxPoint x="734" y="499.5" as="sourcePoint" />
            <mxPoint x="986" y="295" as="targetPoint" />
            <Array as="points">
              <mxPoint x="734" y="510" />
              <mxPoint x="923" y="510" />
              <mxPoint x="923" y="290" />
              <mxPoint x="998" y="290" />
            </Array>
          </mxGeometry>
        </mxCell>
        <mxCell id="kGNBZEPiZM6OQoO1F5po-19" style="edgeStyle=orthogonalEdgeStyle;rounded=0;orthogonalLoop=1;jettySize=auto;html=1;exitX=1;exitY=0.75;exitDx=0;exitDy=0;endArrow=none;endFill=0;entryX=0.5;entryY=0;entryDx=0;entryDy=0;fillColor=#e1d5e7;strokeColor=#000000;" edge="1" parent="1" target="mRBfU09sYX9DR_tW5EZT-2">
          <mxGeometry relative="1" as="geometry">
            <mxPoint x="871" y="640" as="targetPoint" />
            <mxPoint x="734" y="530" as="sourcePoint" />
            <Array as="points">
              <mxPoint x="871" y="530" />
              <mxPoint x="871" y="678" />
            </Array>
          </mxGeometry>
        </mxCell>
        <mxCell id="mRBfU09sYX9DR_tW5EZT-6" style="edgeStyle=orthogonalEdgeStyle;rounded=0;orthogonalLoop=1;jettySize=auto;html=1;exitX=1;exitY=0.5;exitDx=0;exitDy=0;endArrow=none;endFill=0;fillColor=#e1d5e7;strokeColor=#000000;" edge="1" parent="1" source="4G-LfMSE1hTsg_OoOyKA-5" target="mRBfU09sYX9DR_tW5EZT-4">
          <mxGeometry relative="1" as="geometry" />
        </mxCell>
        <mxCell id="mRBfU09sYX9DR_tW5EZT-11" style="edgeStyle=orthogonalEdgeStyle;rounded=0;orthogonalLoop=1;jettySize=auto;html=1;exitX=0.25;exitY=0;exitDx=0;exitDy=0;entryX=0.697;entryY=0.979;entryDx=0;entryDy=0;entryPerimeter=0;endArrow=none;endFill=0;fillColor=#e1d5e7;strokeColor=#000000;" edge="1" parent="1" source="4G-LfMSE1hTsg_OoOyKA-5" target="mRBfU09sYX9DR_tW5EZT-9">
          <mxGeometry relative="1" as="geometry">
            <Array as="points">
              <mxPoint x="656" y="482" />
              <mxPoint x="644" y="482" />
              <mxPoint x="644" y="453" />
            </Array>
          </mxGeometry>
        </mxCell>
        <mxCell id="mRBfU09sYX9DR_tW5EZT-12" style="edgeStyle=orthogonalEdgeStyle;rounded=0;orthogonalLoop=1;jettySize=auto;html=1;endArrow=none;endFill=0;fillColor=#e1d5e7;strokeColor=#000000;" edge="1" parent="1" target="mRBfU09sYX9DR_tW5EZT-8">
          <mxGeometry relative="1" as="geometry">
            <mxPoint x="708" y="499" as="sourcePoint" />
          </mxGeometry>
        </mxCell>
        <mxCell id="4G-LfMSE1hTsg_OoOyKA-5" value="Pet" style="rounded=0;whiteSpace=wrap;html=1;fontSize=12;glass=0;strokeWidth=1;shadow=0;fillColor=#e1d5e7;strokeColor=#9673a6;" vertex="1" parent="1">
          <mxGeometry x="630" y="499.5" width="104" height="40" as="geometry" />
        </mxCell>
        <mxCell id="4G-LfMSE1hTsg_OoOyKA-8" style="edgeStyle=orthogonalEdgeStyle;rounded=0;orthogonalLoop=1;jettySize=auto;html=1;endArrow=none;endFill=0;fillColor=#e1d5e7;strokeColor=#000000;" edge="1" parent="1" source="4G-LfMSE1hTsg_OoOyKA-3">
          <mxGeometry relative="1" as="geometry">
            <mxPoint x="190" y="610" as="targetPoint" />
            <mxPoint x="190" y="450" as="sourcePoint" />
            <Array as="points">
              <mxPoint x="190" y="690" />
            </Array>
          </mxGeometry>
        </mxCell>
        <mxCell id="4G-LfMSE1hTsg_OoOyKA-11" style="edgeStyle=orthogonalEdgeStyle;rounded=0;orthogonalLoop=1;jettySize=auto;html=1;endArrow=none;endFill=0;fillColor=#e1d5e7;strokeColor=#000000;" edge="1" parent="1">
          <mxGeometry relative="1" as="geometry">
            <mxPoint x="392" y="870" as="targetPoint" />
            <mxPoint x="392" y="750" as="sourcePoint" />
          </mxGeometry>
        </mxCell>
        <mxCell id="4G-LfMSE1hTsg_OoOyKA-12" value="Veterinario" style="rounded=0;whiteSpace=wrap;html=1;fontSize=12;glass=0;strokeWidth=1;shadow=0;fillColor=#e1d5e7;strokeColor=#9673a6;" vertex="1" parent="1">
          <mxGeometry x="340" y="710" width="104" height="40" as="geometry" />
        </mxCell>
        <mxCell id="4G-LfMSE1hTsg_OoOyKA-13" value="N" style="text;html=1;align=center;verticalAlign=middle;whiteSpace=wrap;rounded=0;" vertex="1" parent="1">
          <mxGeometry x="260" y="703" width="60" height="30" as="geometry" />
        </mxCell>
        <mxCell id="4G-LfMSE1hTsg_OoOyKA-14" value="1" style="text;html=1;align=center;verticalAlign=middle;whiteSpace=wrap;rounded=0;" vertex="1" parent="1">
          <mxGeometry x="170" y="490" width="60" height="30" as="geometry" />
        </mxCell>
        <mxCell id="4G-LfMSE1hTsg_OoOyKA-17" style="edgeStyle=orthogonalEdgeStyle;rounded=0;orthogonalLoop=1;jettySize=auto;html=1;exitX=1;exitY=0.5;exitDx=0;exitDy=0;entryX=0;entryY=0.5;entryDx=0;entryDy=0;endArrow=none;endFill=0;fillColor=#e1d5e7;strokeColor=#000000;" edge="1" parent="1" source="4G-LfMSE1hTsg_OoOyKA-18" target="4G-LfMSE1hTsg_OoOyKA-12">
          <mxGeometry relative="1" as="geometry" />
        </mxCell>
        <mxCell id="4G-LfMSE1hTsg_OoOyKA-18" value="Possui" style="rhombus;whiteSpace=wrap;html=1;shadow=0;fontFamily=Helvetica;fontSize=12;align=center;strokeWidth=1;spacing=6;spacingTop=-4;fillColor=#e1d5e7;strokeColor=#9673a6;" vertex="1" parent="1">
          <mxGeometry x="140" y="690" width="100" height="80" as="geometry" />
        </mxCell>
        <mxCell id="kGNBZEPiZM6OQoO1F5po-13" style="edgeStyle=orthogonalEdgeStyle;rounded=0;orthogonalLoop=1;jettySize=auto;html=1;exitX=0.5;exitY=1;exitDx=0;exitDy=0;endArrow=none;endFill=0;fillColor=#e1d5e7;strokeColor=#000000;" edge="1" parent="1" source="4G-LfMSE1hTsg_OoOyKA-24">
          <mxGeometry relative="1" as="geometry">
            <mxPoint x="391.42857142857156" y="1020.0000000000002" as="targetPoint" />
          </mxGeometry>
        </mxCell>
        <mxCell id="4G-LfMSE1hTsg_OoOyKA-24" value="Possui" style="rhombus;whiteSpace=wrap;html=1;shadow=0;fontFamily=Helvetica;fontSize=12;align=center;strokeWidth=1;spacing=6;spacingTop=-4;fillColor=#e1d5e7;strokeColor=#9673a6;" vertex="1" parent="1">
          <mxGeometry x="342" y="870" width="100" height="80" as="geometry" />
        </mxCell>
        <mxCell id="4G-LfMSE1hTsg_OoOyKA-25" value="1" style="text;html=1;align=center;verticalAlign=middle;whiteSpace=wrap;rounded=0;" vertex="1" parent="1">
          <mxGeometry x="374" y="800" width="60" height="30" as="geometry" />
        </mxCell>
        <mxCell id="kGNBZEPiZM6OQoO1F5po-1" value="Dono" style="rounded=0;whiteSpace=wrap;html=1;fontSize=12;glass=0;strokeWidth=1;shadow=0;fillColor=#e1d5e7;strokeColor=#9673a6;" vertex="1" parent="1">
          <mxGeometry x="1340" y="499.5" width="104" height="40" as="geometry" />
        </mxCell>
        <mxCell id="mRBfU09sYX9DR_tW5EZT-18" style="edgeStyle=orthogonalEdgeStyle;rounded=0;orthogonalLoop=1;jettySize=auto;html=1;exitX=0;exitY=0.5;exitDx=0;exitDy=0;endArrow=none;endFill=0;fillColor=#e1d5e7;strokeColor=#000000;" edge="1" parent="1" source="kGNBZEPiZM6OQoO1F5po-2" target="mRBfU09sYX9DR_tW5EZT-17">
          <mxGeometry relative="1" as="geometry" />
        </mxCell>
        <mxCell id="kGNBZEPiZM6OQoO1F5po-2" value="Tipo de Pet" style="rounded=0;whiteSpace=wrap;html=1;fontSize=12;glass=0;strokeWidth=1;shadow=0;fillColor=#e1d5e7;strokeColor=#9673a6;" vertex="1" parent="1">
          <mxGeometry x="1245" y="270" width="104" height="40" as="geometry" />
        </mxCell>
        <mxCell id="kGNBZEPiZM6OQoO1F5po-3" value="Raça" style="rounded=0;whiteSpace=wrap;html=1;fontSize=12;glass=0;strokeWidth=1;shadow=0;fillColor=#e1d5e7;strokeColor=#9673a6;" vertex="1" parent="1">
          <mxGeometry x="820" y="860" width="104" height="40" as="geometry" />
        </mxCell>
        <mxCell id="QN_ipXaBANNwWSyIa55B-41" style="edgeStyle=orthogonalEdgeStyle;rounded=0;orthogonalLoop=1;jettySize=auto;html=1;exitX=1;exitY=0.5;exitDx=0;exitDy=0;entryX=0.5;entryY=1;entryDx=0;entryDy=0;endArrow=none;endFill=0;" edge="1" parent="1" source="kGNBZEPiZM6OQoO1F5po-4" target="QN_ipXaBANNwWSyIa55B-40">
          <mxGeometry relative="1" as="geometry" />
        </mxCell>
        <mxCell id="kGNBZEPiZM6OQoO1F5po-4" value="Consulta" style="rounded=0;whiteSpace=wrap;html=1;fontSize=12;glass=0;strokeWidth=1;shadow=0;fillColor=#e1d5e7;strokeColor=#9673a6;" vertex="1" parent="1">
          <mxGeometry x="338" y="1020" width="104" height="40" as="geometry" />
        </mxCell>
        <mxCell id="kGNBZEPiZM6OQoO1F5po-6" value="Endereço&amp;nbsp;" style="ellipse;;whiteSpace=wrap;html=1;fontSize=12;glass=0;strokeWidth=1;shadow=0;fillColor=#e1d5e7;strokeColor=#9673a6;" vertex="1" parent="1">
          <mxGeometry x="454" y="290" width="104" height="40" as="geometry" />
        </mxCell>
        <mxCell id="kGNBZEPiZM6OQoO1F5po-9" style="edgeStyle=orthogonalEdgeStyle;rounded=0;orthogonalLoop=1;jettySize=auto;html=1;exitX=1;exitY=0.5;exitDx=0;exitDy=0;entryX=0;entryY=0.5;entryDx=0;entryDy=0;endArrow=none;endFill=0;fillColor=#e1d5e7;strokeColor=#000000;" edge="1" parent="1" source="4G-LfMSE1hTsg_OoOyKA-3" target="kGNBZEPiZM6OQoO1F5po-6">
          <mxGeometry relative="1" as="geometry">
            <mxPoint x="570" y="310" as="sourcePoint" />
          </mxGeometry>
        </mxCell>
        <mxCell id="kGNBZEPiZM6OQoO1F5po-14" value="N" style="text;html=1;align=center;verticalAlign=middle;whiteSpace=wrap;rounded=0;" vertex="1" parent="1">
          <mxGeometry x="384" y="970" width="60" height="30" as="geometry" />
        </mxCell>
        <mxCell id="mRBfU09sYX9DR_tW5EZT-3" style="edgeStyle=orthogonalEdgeStyle;rounded=0;orthogonalLoop=1;jettySize=auto;html=1;exitX=0.5;exitY=1;exitDx=0;exitDy=0;endArrow=none;endFill=0;fillColor=#e1d5e7;strokeColor=#000000;" edge="1" parent="1" source="mRBfU09sYX9DR_tW5EZT-2" target="kGNBZEPiZM6OQoO1F5po-3">
          <mxGeometry relative="1" as="geometry" />
        </mxCell>
        <mxCell id="mRBfU09sYX9DR_tW5EZT-2" value="Possui" style="rhombus;whiteSpace=wrap;html=1;shadow=0;fontFamily=Helvetica;fontSize=12;align=center;strokeWidth=1;spacing=6;spacingTop=-4;fillColor=#e1d5e7;strokeColor=#9673a6;" vertex="1" parent="1">
          <mxGeometry x="822" y="678" width="100" height="80" as="geometry" />
        </mxCell>
        <mxCell id="mRBfU09sYX9DR_tW5EZT-7" style="edgeStyle=orthogonalEdgeStyle;rounded=0;orthogonalLoop=1;jettySize=auto;html=1;exitX=1;exitY=0.5;exitDx=0;exitDy=0;entryX=0;entryY=0.5;entryDx=0;entryDy=0;endArrow=none;endFill=0;fillColor=#e1d5e7;strokeColor=#000000;" edge="1" parent="1" source="mRBfU09sYX9DR_tW5EZT-4" target="kGNBZEPiZM6OQoO1F5po-1">
          <mxGeometry relative="1" as="geometry" />
        </mxCell>
        <mxCell id="mRBfU09sYX9DR_tW5EZT-4" value="Possui" style="rhombus;whiteSpace=wrap;html=1;shadow=0;fontFamily=Helvetica;fontSize=12;align=center;strokeWidth=1;spacing=6;spacingTop=-4;fillColor=#e1d5e7;strokeColor=#9673a6;" vertex="1" parent="1">
          <mxGeometry x="1080" y="479.5" width="100" height="80" as="geometry" />
        </mxCell>
        <mxCell id="mRBfU09sYX9DR_tW5EZT-8" value="Data de Nascimento" style="ellipse;whiteSpace=wrap;html=1;;fontSize=12;glass=0;strokeWidth=1;shadow=0;fillColor=#e1d5e7;strokeColor=#9673a6;" vertex="1" parent="1">
          <mxGeometry x="680.67" y="430" width="93.33" height="40" as="geometry" />
        </mxCell>
        <mxCell id="mRBfU09sYX9DR_tW5EZT-9" value="Nome" style="ellipse;whiteSpace=wrap;html=1;;fontSize=12;glass=0;strokeWidth=1;shadow=0;fillColor=#e1d5e7;strokeColor=#9673a6;" vertex="1" parent="1">
          <mxGeometry x="607" y="444" width="70" height="30" as="geometry" />
        </mxCell>
        <mxCell id="mRBfU09sYX9DR_tW5EZT-13" value="N" style="text;html=1;align=center;verticalAlign=middle;whiteSpace=wrap;rounded=0;" vertex="1" parent="1">
          <mxGeometry x="962" y="494" width="60" height="30" as="geometry" />
        </mxCell>
        <mxCell id="mRBfU09sYX9DR_tW5EZT-14" value="1" style="text;html=1;align=center;verticalAlign=middle;whiteSpace=wrap;rounded=0;" vertex="1" parent="1">
          <mxGeometry x="1162" y="264" width="60" height="30" as="geometry" />
        </mxCell>
        <mxCell id="mRBfU09sYX9DR_tW5EZT-15" value="N" style="text;html=1;align=center;verticalAlign=middle;whiteSpace=wrap;rounded=0;" vertex="1" parent="1">
          <mxGeometry x="853" y="612" width="60" height="30" as="geometry" />
        </mxCell>
        <mxCell id="mRBfU09sYX9DR_tW5EZT-16" value="1" style="text;html=1;align=center;verticalAlign=middle;whiteSpace=wrap;rounded=0;" vertex="1" parent="1">
          <mxGeometry x="853" y="794" width="60" height="30" as="geometry" />
        </mxCell>
        <mxCell id="mRBfU09sYX9DR_tW5EZT-17" value="Possui" style="rhombus;whiteSpace=wrap;html=1;shadow=0;fontFamily=Helvetica;fontSize=12;align=center;strokeWidth=1;spacing=6;spacingTop=-4;fillColor=#e1d5e7;strokeColor=#9673a6;" vertex="1" parent="1">
          <mxGeometry x="1038" y="250" width="100" height="80" as="geometry" />
        </mxCell>
        <mxCell id="mRBfU09sYX9DR_tW5EZT-19" value="N" style="text;html=1;align=center;verticalAlign=middle;whiteSpace=wrap;rounded=0;" vertex="1" parent="1">
          <mxGeometry x="955" y="266" width="60" height="30" as="geometry" />
        </mxCell>
        <mxCell id="mRBfU09sYX9DR_tW5EZT-20" value="1" style="text;html=1;align=center;verticalAlign=middle;whiteSpace=wrap;rounded=0;" vertex="1" parent="1">
          <mxGeometry x="1228" y="494" width="60" height="30" as="geometry" />
        </mxCell>
        <mxCell id="QN_ipXaBANNwWSyIa55B-1" value="Clínica" style="shape=table;startSize=30;container=1;collapsible=1;childLayout=tableLayout;fixedRows=1;rowLines=0;fontStyle=1;align=center;resizeLast=1;html=1;whiteSpace=wrap;fillColor=#e1d5e7;strokeColor=#9673a6;" vertex="1" parent="1">
          <mxGeometry x="1681" y="222" width="180" height="160" as="geometry" />
        </mxCell>
        <mxCell id="QN_ipXaBANNwWSyIa55B-2" style="shape=tableRow;horizontal=0;startSize=0;swimlaneHead=0;swimlaneBody=0;fillColor=none;collapsible=0;dropTarget=0;points=[[0,0.5],[1,0.5]];portConstraint=eastwest;top=0;left=0;right=0;bottom=0;html=1;" vertex="1" parent="QN_ipXaBANNwWSyIa55B-1">
          <mxGeometry y="30" width="180" height="30" as="geometry" />
        </mxCell>
        <mxCell id="QN_ipXaBANNwWSyIa55B-3" value="PK" style="shape=partialRectangle;connectable=0;fillColor=none;top=0;left=0;bottom=0;right=0;fontStyle=1;overflow=hidden;html=1;whiteSpace=wrap;" vertex="1" parent="QN_ipXaBANNwWSyIa55B-2">
          <mxGeometry width="60" height="30" as="geometry">
            <mxRectangle width="60" height="30" as="alternateBounds" />
          </mxGeometry>
        </mxCell>
        <mxCell id="QN_ipXaBANNwWSyIa55B-4" value="IdClinica&amp;nbsp;" style="shape=partialRectangle;connectable=0;fillColor=none;top=0;left=0;bottom=0;right=0;align=left;spacingLeft=6;fontStyle=5;overflow=hidden;html=1;whiteSpace=wrap;" vertex="1" parent="QN_ipXaBANNwWSyIa55B-2">
          <mxGeometry x="60" width="120" height="30" as="geometry">
            <mxRectangle width="120" height="30" as="alternateBounds" />
          </mxGeometry>
        </mxCell>
        <mxCell id="QN_ipXaBANNwWSyIa55B-5" value="" style="shape=tableRow;horizontal=0;startSize=0;swimlaneHead=0;swimlaneBody=0;fillColor=none;collapsible=0;dropTarget=0;points=[[0,0.5],[1,0.5]];portConstraint=eastwest;top=0;left=0;right=0;bottom=0;html=1;" vertex="1" parent="QN_ipXaBANNwWSyIa55B-1">
          <mxGeometry y="60" width="180" height="20" as="geometry" />
        </mxCell>
        <mxCell id="QN_ipXaBANNwWSyIa55B-6" value="" style="shape=partialRectangle;connectable=0;fillColor=none;top=0;left=0;bottom=0;right=0;fontStyle=1;overflow=hidden;html=1;whiteSpace=wrap;" vertex="1" parent="QN_ipXaBANNwWSyIa55B-5">
          <mxGeometry width="60" height="20" as="geometry">
            <mxRectangle width="60" height="20" as="alternateBounds" />
          </mxGeometry>
        </mxCell>
        <mxCell id="QN_ipXaBANNwWSyIa55B-7" value="" style="shape=partialRectangle;connectable=0;fillColor=none;top=0;left=0;bottom=0;right=0;align=left;spacingLeft=6;fontStyle=5;overflow=hidden;html=1;whiteSpace=wrap;" vertex="1" parent="QN_ipXaBANNwWSyIa55B-5">
          <mxGeometry x="60" width="120" height="20" as="geometry">
            <mxRectangle width="120" height="20" as="alternateBounds" />
          </mxGeometry>
        </mxCell>
        <mxCell id="QN_ipXaBANNwWSyIa55B-8" value="" style="shape=tableRow;horizontal=0;startSize=0;swimlaneHead=0;swimlaneBody=0;fillColor=none;collapsible=0;dropTarget=0;points=[[0,0.5],[1,0.5]];portConstraint=eastwest;top=0;left=0;right=0;bottom=1;html=1;" vertex="1" parent="QN_ipXaBANNwWSyIa55B-1">
          <mxGeometry y="80" width="180" height="20" as="geometry" />
        </mxCell>
        <mxCell id="QN_ipXaBANNwWSyIa55B-9" value="" style="shape=partialRectangle;connectable=0;fillColor=none;top=0;left=0;bottom=0;right=0;fontStyle=1;overflow=hidden;html=1;whiteSpace=wrap;" vertex="1" parent="QN_ipXaBANNwWSyIa55B-8">
          <mxGeometry width="60" height="20" as="geometry">
            <mxRectangle width="60" height="20" as="alternateBounds" />
          </mxGeometry>
        </mxCell>
        <mxCell id="QN_ipXaBANNwWSyIa55B-10" value="" style="shape=partialRectangle;connectable=0;fillColor=none;top=0;left=0;bottom=0;right=0;align=left;spacingLeft=6;fontStyle=5;overflow=hidden;html=1;whiteSpace=wrap;" vertex="1" parent="QN_ipXaBANNwWSyIa55B-8">
          <mxGeometry x="60" width="120" height="20" as="geometry">
            <mxRectangle width="120" height="20" as="alternateBounds" />
          </mxGeometry>
        </mxCell>
        <mxCell id="QN_ipXaBANNwWSyIa55B-11" value="" style="shape=tableRow;horizontal=0;startSize=0;swimlaneHead=0;swimlaneBody=0;fillColor=none;collapsible=0;dropTarget=0;points=[[0,0.5],[1,0.5]];portConstraint=eastwest;top=0;left=0;right=0;bottom=0;html=1;" vertex="1" parent="QN_ipXaBANNwWSyIa55B-1">
          <mxGeometry y="100" width="180" height="30" as="geometry" />
        </mxCell>
        <mxCell id="QN_ipXaBANNwWSyIa55B-12" value="" style="shape=partialRectangle;connectable=0;fillColor=none;top=0;left=0;bottom=0;right=0;editable=1;overflow=hidden;html=1;whiteSpace=wrap;" vertex="1" parent="QN_ipXaBANNwWSyIa55B-11">
          <mxGeometry width="60" height="30" as="geometry">
            <mxRectangle width="60" height="30" as="alternateBounds" />
          </mxGeometry>
        </mxCell>
        <mxCell id="QN_ipXaBANNwWSyIa55B-13" value="Endereço" style="shape=partialRectangle;connectable=0;fillColor=none;top=0;left=0;bottom=0;right=0;align=left;spacingLeft=6;overflow=hidden;html=1;whiteSpace=wrap;" vertex="1" parent="QN_ipXaBANNwWSyIa55B-11">
          <mxGeometry x="60" width="120" height="30" as="geometry">
            <mxRectangle width="120" height="30" as="alternateBounds" />
          </mxGeometry>
        </mxCell>
        <mxCell id="QN_ipXaBANNwWSyIa55B-14" style="shape=tableRow;horizontal=0;startSize=0;swimlaneHead=0;swimlaneBody=0;fillColor=none;collapsible=0;dropTarget=0;points=[[0,0.5],[1,0.5]];portConstraint=eastwest;top=0;left=0;right=0;bottom=0;html=1;" vertex="1" parent="QN_ipXaBANNwWSyIa55B-1">
          <mxGeometry y="130" width="180" height="30" as="geometry" />
        </mxCell>
        <mxCell id="QN_ipXaBANNwWSyIa55B-15" style="shape=partialRectangle;connectable=0;fillColor=none;top=0;left=0;bottom=0;right=0;editable=1;overflow=hidden;html=1;whiteSpace=wrap;" vertex="1" parent="QN_ipXaBANNwWSyIa55B-14">
          <mxGeometry width="60" height="30" as="geometry">
            <mxRectangle width="60" height="30" as="alternateBounds" />
          </mxGeometry>
        </mxCell>
        <mxCell id="QN_ipXaBANNwWSyIa55B-16" value="" style="shape=partialRectangle;connectable=0;fillColor=none;top=0;left=0;bottom=0;right=0;align=left;spacingLeft=6;overflow=hidden;html=1;whiteSpace=wrap;" vertex="1" parent="QN_ipXaBANNwWSyIa55B-14">
          <mxGeometry x="60" width="120" height="30" as="geometry">
            <mxRectangle width="120" height="30" as="alternateBounds" />
          </mxGeometry>
        </mxCell>
        <mxCell id="QN_ipXaBANNwWSyIa55B-17" value="Veterinário" style="shape=table;startSize=30;container=1;collapsible=1;childLayout=tableLayout;fixedRows=1;rowLines=0;fontStyle=1;align=center;resizeLast=1;html=1;whiteSpace=wrap;fillColor=#e1d5e7;strokeColor=#9673a6;" vertex="1" parent="1">
          <mxGeometry x="2013" y="245" width="180" height="120" as="geometry" />
        </mxCell>
        <mxCell id="QN_ipXaBANNwWSyIa55B-18" style="shape=tableRow;horizontal=0;startSize=0;swimlaneHead=0;swimlaneBody=0;fillColor=none;collapsible=0;dropTarget=0;points=[[0,0.5],[1,0.5]];portConstraint=eastwest;top=0;left=0;right=0;bottom=0;html=1;" vertex="1" parent="QN_ipXaBANNwWSyIa55B-17">
          <mxGeometry y="30" width="180" height="30" as="geometry" />
        </mxCell>
        <mxCell id="QN_ipXaBANNwWSyIa55B-19" value="PK" style="shape=partialRectangle;connectable=0;fillColor=none;top=0;left=0;bottom=0;right=0;fontStyle=1;overflow=hidden;html=1;whiteSpace=wrap;" vertex="1" parent="QN_ipXaBANNwWSyIa55B-18">
          <mxGeometry width="60" height="30" as="geometry">
            <mxRectangle width="60" height="30" as="alternateBounds" />
          </mxGeometry>
        </mxCell>
        <mxCell id="QN_ipXaBANNwWSyIa55B-20" value="IdVeterinário" style="shape=partialRectangle;connectable=0;fillColor=none;top=0;left=0;bottom=0;right=0;align=left;spacingLeft=6;fontStyle=5;overflow=hidden;html=1;whiteSpace=wrap;" vertex="1" parent="QN_ipXaBANNwWSyIa55B-18">
          <mxGeometry x="60" width="120" height="30" as="geometry">
            <mxRectangle width="120" height="30" as="alternateBounds" />
          </mxGeometry>
        </mxCell>
        <mxCell id="QN_ipXaBANNwWSyIa55B-21" value="" style="shape=tableRow;horizontal=0;startSize=0;swimlaneHead=0;swimlaneBody=0;fillColor=none;collapsible=0;dropTarget=0;points=[[0,0.5],[1,0.5]];portConstraint=eastwest;top=0;left=0;right=0;bottom=1;html=1;" vertex="1" parent="QN_ipXaBANNwWSyIa55B-17">
          <mxGeometry y="60" width="180" height="30" as="geometry" />
        </mxCell>
        <mxCell id="QN_ipXaBANNwWSyIa55B-22" value="FK" style="shape=partialRectangle;connectable=0;fillColor=none;top=0;left=0;bottom=0;right=0;fontStyle=1;overflow=hidden;html=1;whiteSpace=wrap;" vertex="1" parent="QN_ipXaBANNwWSyIa55B-21">
          <mxGeometry width="60" height="30" as="geometry">
            <mxRectangle width="60" height="30" as="alternateBounds" />
          </mxGeometry>
        </mxCell>
        <mxCell id="QN_ipXaBANNwWSyIa55B-23" value="IdClinica&amp;nbsp;" style="shape=partialRectangle;connectable=0;fillColor=none;top=0;left=0;bottom=0;right=0;align=left;spacingLeft=6;fontStyle=5;overflow=hidden;html=1;whiteSpace=wrap;" vertex="1" parent="QN_ipXaBANNwWSyIa55B-21">
          <mxGeometry x="60" width="120" height="30" as="geometry">
            <mxRectangle width="120" height="30" as="alternateBounds" />
          </mxGeometry>
        </mxCell>
        <mxCell id="QN_ipXaBANNwWSyIa55B-24" value="" style="shape=tableRow;horizontal=0;startSize=0;swimlaneHead=0;swimlaneBody=0;fillColor=none;collapsible=0;dropTarget=0;points=[[0,0.5],[1,0.5]];portConstraint=eastwest;top=0;left=0;right=0;bottom=0;html=1;" vertex="1" parent="QN_ipXaBANNwWSyIa55B-17">
          <mxGeometry y="90" width="180" height="30" as="geometry" />
        </mxCell>
        <mxCell id="QN_ipXaBANNwWSyIa55B-25" value="" style="shape=partialRectangle;connectable=0;fillColor=none;top=0;left=0;bottom=0;right=0;editable=1;overflow=hidden;html=1;whiteSpace=wrap;" vertex="1" parent="QN_ipXaBANNwWSyIa55B-24">
          <mxGeometry width="60" height="30" as="geometry">
            <mxRectangle width="60" height="30" as="alternateBounds" />
          </mxGeometry>
        </mxCell>
        <mxCell id="QN_ipXaBANNwWSyIa55B-26" value="" style="shape=partialRectangle;connectable=0;fillColor=none;top=0;left=0;bottom=0;right=0;align=left;spacingLeft=6;overflow=hidden;html=1;whiteSpace=wrap;" vertex="1" parent="QN_ipXaBANNwWSyIa55B-24">
          <mxGeometry x="60" width="120" height="30" as="geometry">
            <mxRectangle width="120" height="30" as="alternateBounds" />
          </mxGeometry>
        </mxCell>
        <mxCell id="QN_ipXaBANNwWSyIa55B-30" value="Consulta" style="shape=table;startSize=30;container=1;collapsible=1;childLayout=tableLayout;fixedRows=1;rowLines=0;fontStyle=1;align=center;resizeLast=1;html=1;whiteSpace=wrap;fillColor=#e1d5e7;strokeColor=#9673a6;" vertex="1" parent="1">
          <mxGeometry x="2304" y="204" width="180" height="150" as="geometry" />
        </mxCell>
        <mxCell id="Wmc4pKRZCXl6si6PgpEI-40" style="shape=tableRow;horizontal=0;startSize=0;swimlaneHead=0;swimlaneBody=0;fillColor=none;collapsible=0;dropTarget=0;points=[[0,0.5],[1,0.5]];portConstraint=eastwest;top=0;left=0;right=0;bottom=0;html=1;" vertex="1" parent="QN_ipXaBANNwWSyIa55B-30">
          <mxGeometry y="30" width="180" height="30" as="geometry" />
        </mxCell>
        <mxCell id="Wmc4pKRZCXl6si6PgpEI-41" value="PK" style="shape=partialRectangle;connectable=0;fillColor=none;top=0;left=0;bottom=0;right=0;fontStyle=1;overflow=hidden;html=1;whiteSpace=wrap;" vertex="1" parent="Wmc4pKRZCXl6si6PgpEI-40">
          <mxGeometry width="60" height="30" as="geometry">
            <mxRectangle width="60" height="30" as="alternateBounds" />
          </mxGeometry>
        </mxCell>
        <mxCell id="Wmc4pKRZCXl6si6PgpEI-42" value="IdConsulta" style="shape=partialRectangle;connectable=0;fillColor=none;top=0;left=0;bottom=0;right=0;align=left;spacingLeft=6;fontStyle=5;overflow=hidden;html=1;whiteSpace=wrap;" vertex="1" parent="Wmc4pKRZCXl6si6PgpEI-40">
          <mxGeometry x="60" width="120" height="30" as="geometry">
            <mxRectangle width="120" height="30" as="alternateBounds" />
          </mxGeometry>
        </mxCell>
        <mxCell id="QN_ipXaBANNwWSyIa55B-31" style="shape=tableRow;horizontal=0;startSize=0;swimlaneHead=0;swimlaneBody=0;fillColor=none;collapsible=0;dropTarget=0;points=[[0,0.5],[1,0.5]];portConstraint=eastwest;top=0;left=0;right=0;bottom=0;html=1;" vertex="1" parent="QN_ipXaBANNwWSyIa55B-30">
          <mxGeometry y="60" width="180" height="30" as="geometry" />
        </mxCell>
        <mxCell id="QN_ipXaBANNwWSyIa55B-32" value="FK" style="shape=partialRectangle;connectable=0;fillColor=none;top=0;left=0;bottom=0;right=0;fontStyle=1;overflow=hidden;html=1;whiteSpace=wrap;" vertex="1" parent="QN_ipXaBANNwWSyIa55B-31">
          <mxGeometry width="60" height="30" as="geometry">
            <mxRectangle width="60" height="30" as="alternateBounds" />
          </mxGeometry>
        </mxCell>
        <mxCell id="QN_ipXaBANNwWSyIa55B-33" value="IdVeterinario" style="shape=partialRectangle;connectable=0;fillColor=none;top=0;left=0;bottom=0;right=0;align=left;spacingLeft=6;fontStyle=5;overflow=hidden;html=1;whiteSpace=wrap;" vertex="1" parent="QN_ipXaBANNwWSyIa55B-31">
          <mxGeometry x="60" width="120" height="30" as="geometry">
            <mxRectangle width="120" height="30" as="alternateBounds" />
          </mxGeometry>
        </mxCell>
        <mxCell id="QN_ipXaBANNwWSyIa55B-34" value="" style="shape=tableRow;horizontal=0;startSize=0;swimlaneHead=0;swimlaneBody=0;fillColor=none;collapsible=0;dropTarget=0;points=[[0,0.5],[1,0.5]];portConstraint=eastwest;top=0;left=0;right=0;bottom=1;html=1;" vertex="1" parent="QN_ipXaBANNwWSyIa55B-30">
          <mxGeometry y="90" width="180" height="30" as="geometry" />
        </mxCell>
        <mxCell id="QN_ipXaBANNwWSyIa55B-35" value="FK" style="shape=partialRectangle;connectable=0;fillColor=none;top=0;left=0;bottom=0;right=0;fontStyle=1;overflow=hidden;html=1;whiteSpace=wrap;" vertex="1" parent="QN_ipXaBANNwWSyIa55B-34">
          <mxGeometry width="60" height="30" as="geometry">
            <mxRectangle width="60" height="30" as="alternateBounds" />
          </mxGeometry>
        </mxCell>
        <mxCell id="QN_ipXaBANNwWSyIa55B-36" value="IdPET" style="shape=partialRectangle;connectable=0;fillColor=none;top=0;left=0;bottom=0;right=0;align=left;spacingLeft=6;fontStyle=5;overflow=hidden;html=1;whiteSpace=wrap;" vertex="1" parent="QN_ipXaBANNwWSyIa55B-34">
          <mxGeometry x="60" width="120" height="30" as="geometry">
            <mxRectangle width="120" height="30" as="alternateBounds" />
          </mxGeometry>
        </mxCell>
        <mxCell id="QN_ipXaBANNwWSyIa55B-37" value="" style="shape=tableRow;horizontal=0;startSize=0;swimlaneHead=0;swimlaneBody=0;fillColor=none;collapsible=0;dropTarget=0;points=[[0,0.5],[1,0.5]];portConstraint=eastwest;top=0;left=0;right=0;bottom=0;html=1;" vertex="1" parent="QN_ipXaBANNwWSyIa55B-30">
          <mxGeometry y="120" width="180" height="30" as="geometry" />
        </mxCell>
        <mxCell id="QN_ipXaBANNwWSyIa55B-38" value="" style="shape=partialRectangle;connectable=0;fillColor=none;top=0;left=0;bottom=0;right=0;editable=1;overflow=hidden;html=1;whiteSpace=wrap;" vertex="1" parent="QN_ipXaBANNwWSyIa55B-37">
          <mxGeometry width="60" height="30" as="geometry">
            <mxRectangle width="60" height="30" as="alternateBounds" />
          </mxGeometry>
        </mxCell>
        <mxCell id="QN_ipXaBANNwWSyIa55B-39" value="" style="shape=partialRectangle;connectable=0;fillColor=none;top=0;left=0;bottom=0;right=0;align=left;spacingLeft=6;overflow=hidden;html=1;whiteSpace=wrap;" vertex="1" parent="QN_ipXaBANNwWSyIa55B-37">
          <mxGeometry x="60" width="120" height="30" as="geometry">
            <mxRectangle width="120" height="30" as="alternateBounds" />
          </mxGeometry>
        </mxCell>
        <mxCell id="QN_ipXaBANNwWSyIa55B-42" style="edgeStyle=orthogonalEdgeStyle;rounded=0;orthogonalLoop=1;jettySize=auto;html=1;exitX=0.5;exitY=0;exitDx=0;exitDy=0;entryX=0;entryY=0.5;entryDx=0;entryDy=0;endArrow=none;endFill=0;" edge="1" parent="1" source="QN_ipXaBANNwWSyIa55B-40" target="4G-LfMSE1hTsg_OoOyKA-5">
          <mxGeometry relative="1" as="geometry" />
        </mxCell>
        <mxCell id="QN_ipXaBANNwWSyIa55B-40" value="Possui" style="rhombus;whiteSpace=wrap;html=1;shadow=0;fontFamily=Helvetica;fontSize=12;align=center;strokeWidth=1;spacing=6;spacingTop=-4;fillColor=#e1d5e7;strokeColor=#9673a6;" vertex="1" parent="1">
          <mxGeometry x="470" y="591" width="100" height="80" as="geometry" />
        </mxCell>
        <mxCell id="QN_ipXaBANNwWSyIa55B-43" value="1" style="text;html=1;align=center;verticalAlign=middle;whiteSpace=wrap;rounded=0;" vertex="1" parent="1">
          <mxGeometry x="529" y="490" width="60" height="30" as="geometry" />
        </mxCell>
        <mxCell id="QN_ipXaBANNwWSyIa55B-44" value="N" style="text;html=1;align=center;verticalAlign=middle;whiteSpace=wrap;rounded=0;" vertex="1" parent="1">
          <mxGeometry x="510" y="786" width="60" height="30" as="geometry" />
        </mxCell>
        <mxCell id="QN_ipXaBANNwWSyIa55B-46" value="PET" style="shape=table;startSize=30;container=1;collapsible=1;childLayout=tableLayout;fixedRows=1;rowLines=0;fontStyle=1;align=center;resizeLast=1;html=1;whiteSpace=wrap;fillColor=#e1d5e7;strokeColor=#9673a6;" vertex="1" parent="1">
          <mxGeometry x="2655" y="140" width="191" height="210" as="geometry" />
        </mxCell>
        <mxCell id="QN_ipXaBANNwWSyIa55B-77" style="shape=tableRow;horizontal=0;startSize=0;swimlaneHead=0;swimlaneBody=0;fillColor=none;collapsible=0;dropTarget=0;points=[[0,0.5],[1,0.5]];portConstraint=eastwest;top=0;left=0;right=0;bottom=0;html=1;" vertex="1" parent="QN_ipXaBANNwWSyIa55B-46">
          <mxGeometry y="30" width="191" height="30" as="geometry" />
        </mxCell>
        <mxCell id="QN_ipXaBANNwWSyIa55B-78" value="PK" style="shape=partialRectangle;connectable=0;fillColor=none;top=0;left=0;bottom=0;right=0;fontStyle=1;overflow=hidden;html=1;whiteSpace=wrap;" vertex="1" parent="QN_ipXaBANNwWSyIa55B-77">
          <mxGeometry width="60" height="30" as="geometry">
            <mxRectangle width="60" height="30" as="alternateBounds" />
          </mxGeometry>
        </mxCell>
        <mxCell id="QN_ipXaBANNwWSyIa55B-79" value="IdPET" style="shape=partialRectangle;connectable=0;fillColor=none;top=0;left=0;bottom=0;right=0;align=left;spacingLeft=6;fontStyle=5;overflow=hidden;html=1;whiteSpace=wrap;" vertex="1" parent="QN_ipXaBANNwWSyIa55B-77">
          <mxGeometry x="60" width="131" height="30" as="geometry">
            <mxRectangle width="131" height="30" as="alternateBounds" />
          </mxGeometry>
        </mxCell>
        <mxCell id="QN_ipXaBANNwWSyIa55B-59" style="shape=tableRow;horizontal=0;startSize=0;swimlaneHead=0;swimlaneBody=0;fillColor=none;collapsible=0;dropTarget=0;points=[[0,0.5],[1,0.5]];portConstraint=eastwest;top=0;left=0;right=0;bottom=0;html=1;" vertex="1" parent="QN_ipXaBANNwWSyIa55B-46">
          <mxGeometry y="60" width="191" height="30" as="geometry" />
        </mxCell>
        <mxCell id="QN_ipXaBANNwWSyIa55B-60" value="FK" style="shape=partialRectangle;connectable=0;fillColor=none;top=0;left=0;bottom=0;right=0;fontStyle=1;overflow=hidden;html=1;whiteSpace=wrap;" vertex="1" parent="QN_ipXaBANNwWSyIa55B-59">
          <mxGeometry width="60" height="30" as="geometry">
            <mxRectangle width="60" height="30" as="alternateBounds" />
          </mxGeometry>
        </mxCell>
        <mxCell id="QN_ipXaBANNwWSyIa55B-61" value="IdTipodepet" style="shape=partialRectangle;connectable=0;fillColor=none;top=0;left=0;bottom=0;right=0;align=left;spacingLeft=6;fontStyle=5;overflow=hidden;html=1;whiteSpace=wrap;" vertex="1" parent="QN_ipXaBANNwWSyIa55B-59">
          <mxGeometry x="60" width="131" height="30" as="geometry">
            <mxRectangle width="131" height="30" as="alternateBounds" />
          </mxGeometry>
        </mxCell>
        <mxCell id="QN_ipXaBANNwWSyIa55B-47" style="shape=tableRow;horizontal=0;startSize=0;swimlaneHead=0;swimlaneBody=0;fillColor=none;collapsible=0;dropTarget=0;points=[[0,0.5],[1,0.5]];portConstraint=eastwest;top=0;left=0;right=0;bottom=0;html=1;" vertex="1" parent="QN_ipXaBANNwWSyIa55B-46">
          <mxGeometry y="90" width="191" height="30" as="geometry" />
        </mxCell>
        <mxCell id="QN_ipXaBANNwWSyIa55B-48" value="FK" style="shape=partialRectangle;connectable=0;fillColor=none;top=0;left=0;bottom=0;right=0;fontStyle=1;overflow=hidden;html=1;whiteSpace=wrap;" vertex="1" parent="QN_ipXaBANNwWSyIa55B-47">
          <mxGeometry width="60" height="30" as="geometry">
            <mxRectangle width="60" height="30" as="alternateBounds" />
          </mxGeometry>
        </mxCell>
        <mxCell id="QN_ipXaBANNwWSyIa55B-49" value="IdDono" style="shape=partialRectangle;connectable=0;fillColor=none;top=0;left=0;bottom=0;right=0;align=left;spacingLeft=6;fontStyle=5;overflow=hidden;html=1;whiteSpace=wrap;" vertex="1" parent="QN_ipXaBANNwWSyIa55B-47">
          <mxGeometry x="60" width="131" height="30" as="geometry">
            <mxRectangle width="131" height="30" as="alternateBounds" />
          </mxGeometry>
        </mxCell>
        <mxCell id="QN_ipXaBANNwWSyIa55B-50" value="" style="shape=tableRow;horizontal=0;startSize=0;swimlaneHead=0;swimlaneBody=0;fillColor=none;collapsible=0;dropTarget=0;points=[[0,0.5],[1,0.5]];portConstraint=eastwest;top=0;left=0;right=0;bottom=1;html=1;" vertex="1" parent="QN_ipXaBANNwWSyIa55B-46">
          <mxGeometry y="120" width="191" height="30" as="geometry" />
        </mxCell>
        <mxCell id="QN_ipXaBANNwWSyIa55B-51" value="FK" style="shape=partialRectangle;connectable=0;fillColor=none;top=0;left=0;bottom=0;right=0;fontStyle=1;overflow=hidden;html=1;whiteSpace=wrap;" vertex="1" parent="QN_ipXaBANNwWSyIa55B-50">
          <mxGeometry width="60" height="30" as="geometry">
            <mxRectangle width="60" height="30" as="alternateBounds" />
          </mxGeometry>
        </mxCell>
        <mxCell id="QN_ipXaBANNwWSyIa55B-52" value="IdRaca" style="shape=partialRectangle;connectable=0;fillColor=none;top=0;left=0;bottom=0;right=0;align=left;spacingLeft=6;fontStyle=5;overflow=hidden;html=1;whiteSpace=wrap;" vertex="1" parent="QN_ipXaBANNwWSyIa55B-50">
          <mxGeometry x="60" width="131" height="30" as="geometry">
            <mxRectangle width="131" height="30" as="alternateBounds" />
          </mxGeometry>
        </mxCell>
        <mxCell id="QN_ipXaBANNwWSyIa55B-53" value="" style="shape=tableRow;horizontal=0;startSize=0;swimlaneHead=0;swimlaneBody=0;fillColor=none;collapsible=0;dropTarget=0;points=[[0,0.5],[1,0.5]];portConstraint=eastwest;top=0;left=0;right=0;bottom=0;html=1;" vertex="1" parent="QN_ipXaBANNwWSyIa55B-46">
          <mxGeometry y="150" width="191" height="30" as="geometry" />
        </mxCell>
        <mxCell id="QN_ipXaBANNwWSyIa55B-54" value="" style="shape=partialRectangle;connectable=0;fillColor=none;top=0;left=0;bottom=0;right=0;editable=1;overflow=hidden;html=1;whiteSpace=wrap;" vertex="1" parent="QN_ipXaBANNwWSyIa55B-53">
          <mxGeometry width="60" height="30" as="geometry">
            <mxRectangle width="60" height="30" as="alternateBounds" />
          </mxGeometry>
        </mxCell>
        <mxCell id="QN_ipXaBANNwWSyIa55B-55" value="Nome" style="shape=partialRectangle;connectable=0;fillColor=none;top=0;left=0;bottom=0;right=0;align=left;spacingLeft=6;overflow=hidden;html=1;whiteSpace=wrap;" vertex="1" parent="QN_ipXaBANNwWSyIa55B-53">
          <mxGeometry x="60" width="131" height="30" as="geometry">
            <mxRectangle width="131" height="30" as="alternateBounds" />
          </mxGeometry>
        </mxCell>
        <mxCell id="QN_ipXaBANNwWSyIa55B-68" style="shape=tableRow;horizontal=0;startSize=0;swimlaneHead=0;swimlaneBody=0;fillColor=none;collapsible=0;dropTarget=0;points=[[0,0.5],[1,0.5]];portConstraint=eastwest;top=0;left=0;right=0;bottom=0;html=1;" vertex="1" parent="QN_ipXaBANNwWSyIa55B-46">
          <mxGeometry y="180" width="191" height="30" as="geometry" />
        </mxCell>
        <mxCell id="QN_ipXaBANNwWSyIa55B-69" style="shape=partialRectangle;connectable=0;fillColor=none;top=0;left=0;bottom=0;right=0;editable=1;overflow=hidden;html=1;whiteSpace=wrap;" vertex="1" parent="QN_ipXaBANNwWSyIa55B-68">
          <mxGeometry width="60" height="30" as="geometry">
            <mxRectangle width="60" height="30" as="alternateBounds" />
          </mxGeometry>
        </mxCell>
        <mxCell id="QN_ipXaBANNwWSyIa55B-70" value="Data de Nascimento&amp;nbsp;" style="shape=partialRectangle;connectable=0;fillColor=none;top=0;left=0;bottom=0;right=0;align=left;spacingLeft=6;overflow=hidden;html=1;whiteSpace=wrap;" vertex="1" parent="QN_ipXaBANNwWSyIa55B-68">
          <mxGeometry x="60" width="131" height="30" as="geometry">
            <mxRectangle width="131" height="30" as="alternateBounds" />
          </mxGeometry>
        </mxCell>
        <mxCell id="QN_ipXaBANNwWSyIa55B-94" value="Tipo de PET&amp;nbsp;" style="shape=table;startSize=30;container=1;collapsible=1;childLayout=tableLayout;fixedRows=1;rowLines=0;fontStyle=1;align=center;resizeLast=1;html=1;fillColor=#e1d5e7;strokeColor=#9673a6;" vertex="1" parent="1">
          <mxGeometry x="3009" y="70" width="180" height="90" as="geometry" />
        </mxCell>
        <mxCell id="QN_ipXaBANNwWSyIa55B-95" value="" style="shape=tableRow;horizontal=0;startSize=0;swimlaneHead=0;swimlaneBody=0;fillColor=none;collapsible=0;dropTarget=0;points=[[0,0.5],[1,0.5]];portConstraint=eastwest;top=0;left=0;right=0;bottom=1;" vertex="1" parent="QN_ipXaBANNwWSyIa55B-94">
          <mxGeometry y="30" width="180" height="30" as="geometry" />
        </mxCell>
        <mxCell id="QN_ipXaBANNwWSyIa55B-96" value="PK" style="shape=partialRectangle;connectable=0;fillColor=none;top=0;left=0;bottom=0;right=0;fontStyle=1;overflow=hidden;whiteSpace=wrap;html=1;" vertex="1" parent="QN_ipXaBANNwWSyIa55B-95">
          <mxGeometry width="30" height="30" as="geometry">
            <mxRectangle width="30" height="30" as="alternateBounds" />
          </mxGeometry>
        </mxCell>
        <mxCell id="QN_ipXaBANNwWSyIa55B-97" value="IdTipodePET" style="shape=partialRectangle;connectable=0;fillColor=none;top=0;left=0;bottom=0;right=0;align=left;spacingLeft=6;fontStyle=5;overflow=hidden;whiteSpace=wrap;html=1;" vertex="1" parent="QN_ipXaBANNwWSyIa55B-95">
          <mxGeometry x="30" width="150" height="30" as="geometry">
            <mxRectangle width="150" height="30" as="alternateBounds" />
          </mxGeometry>
        </mxCell>
        <mxCell id="QN_ipXaBANNwWSyIa55B-98" value="" style="shape=tableRow;horizontal=0;startSize=0;swimlaneHead=0;swimlaneBody=0;fillColor=none;collapsible=0;dropTarget=0;points=[[0,0.5],[1,0.5]];portConstraint=eastwest;top=0;left=0;right=0;bottom=0;" vertex="1" parent="QN_ipXaBANNwWSyIa55B-94">
          <mxGeometry y="60" width="180" height="30" as="geometry" />
        </mxCell>
        <mxCell id="QN_ipXaBANNwWSyIa55B-99" value="" style="shape=partialRectangle;connectable=0;fillColor=none;top=0;left=0;bottom=0;right=0;editable=1;overflow=hidden;whiteSpace=wrap;html=1;" vertex="1" parent="QN_ipXaBANNwWSyIa55B-98">
          <mxGeometry width="30" height="30" as="geometry">
            <mxRectangle width="30" height="30" as="alternateBounds" />
          </mxGeometry>
        </mxCell>
        <mxCell id="QN_ipXaBANNwWSyIa55B-100" value="" style="shape=partialRectangle;connectable=0;fillColor=none;top=0;left=0;bottom=0;right=0;align=left;spacingLeft=6;overflow=hidden;whiteSpace=wrap;html=1;" vertex="1" parent="QN_ipXaBANNwWSyIa55B-98">
          <mxGeometry x="30" width="150" height="30" as="geometry">
            <mxRectangle width="150" height="30" as="alternateBounds" />
          </mxGeometry>
        </mxCell>
        <mxCell id="QN_ipXaBANNwWSyIa55B-107" value="Dono&amp;nbsp;" style="shape=table;startSize=30;container=1;collapsible=1;childLayout=tableLayout;fixedRows=1;rowLines=0;fontStyle=1;align=center;resizeLast=1;html=1;fillColor=#e1d5e7;strokeColor=#9673a6;" vertex="1" parent="1">
          <mxGeometry x="3012" y="217" width="180" height="90" as="geometry" />
        </mxCell>
        <mxCell id="QN_ipXaBANNwWSyIa55B-108" value="" style="shape=tableRow;horizontal=0;startSize=0;swimlaneHead=0;swimlaneBody=0;fillColor=none;collapsible=0;dropTarget=0;points=[[0,0.5],[1,0.5]];portConstraint=eastwest;top=0;left=0;right=0;bottom=1;" vertex="1" parent="QN_ipXaBANNwWSyIa55B-107">
          <mxGeometry y="30" width="180" height="30" as="geometry" />
        </mxCell>
        <mxCell id="QN_ipXaBANNwWSyIa55B-109" value="PK" style="shape=partialRectangle;connectable=0;fillColor=none;top=0;left=0;bottom=0;right=0;fontStyle=1;overflow=hidden;whiteSpace=wrap;html=1;" vertex="1" parent="QN_ipXaBANNwWSyIa55B-108">
          <mxGeometry width="30" height="30" as="geometry">
            <mxRectangle width="30" height="30" as="alternateBounds" />
          </mxGeometry>
        </mxCell>
        <mxCell id="QN_ipXaBANNwWSyIa55B-110" value="IdDono" style="shape=partialRectangle;connectable=0;fillColor=none;top=0;left=0;bottom=0;right=0;align=left;spacingLeft=6;fontStyle=5;overflow=hidden;whiteSpace=wrap;html=1;" vertex="1" parent="QN_ipXaBANNwWSyIa55B-108">
          <mxGeometry x="30" width="150" height="30" as="geometry">
            <mxRectangle width="150" height="30" as="alternateBounds" />
          </mxGeometry>
        </mxCell>
        <mxCell id="QN_ipXaBANNwWSyIa55B-111" value="" style="shape=tableRow;horizontal=0;startSize=0;swimlaneHead=0;swimlaneBody=0;fillColor=none;collapsible=0;dropTarget=0;points=[[0,0.5],[1,0.5]];portConstraint=eastwest;top=0;left=0;right=0;bottom=0;" vertex="1" parent="QN_ipXaBANNwWSyIa55B-107">
          <mxGeometry y="60" width="180" height="30" as="geometry" />
        </mxCell>
        <mxCell id="QN_ipXaBANNwWSyIa55B-112" value="" style="shape=partialRectangle;connectable=0;fillColor=none;top=0;left=0;bottom=0;right=0;editable=1;overflow=hidden;whiteSpace=wrap;html=1;" vertex="1" parent="QN_ipXaBANNwWSyIa55B-111">
          <mxGeometry width="30" height="30" as="geometry">
            <mxRectangle width="30" height="30" as="alternateBounds" />
          </mxGeometry>
        </mxCell>
        <mxCell id="QN_ipXaBANNwWSyIa55B-113" value="" style="shape=partialRectangle;connectable=0;fillColor=none;top=0;left=0;bottom=0;right=0;align=left;spacingLeft=6;overflow=hidden;whiteSpace=wrap;html=1;" vertex="1" parent="QN_ipXaBANNwWSyIa55B-111">
          <mxGeometry x="30" width="150" height="30" as="geometry">
            <mxRectangle width="150" height="30" as="alternateBounds" />
          </mxGeometry>
        </mxCell>
        <mxCell id="QN_ipXaBANNwWSyIa55B-114" value="Raça" style="shape=table;startSize=30;container=1;collapsible=1;childLayout=tableLayout;fixedRows=1;rowLines=0;fontStyle=1;align=center;resizeLast=1;html=1;fillColor=#e1d5e7;strokeColor=#9673a6;" vertex="1" parent="1">
          <mxGeometry x="3012" y="378" width="180" height="90" as="geometry" />
        </mxCell>
        <mxCell id="QN_ipXaBANNwWSyIa55B-115" value="" style="shape=tableRow;horizontal=0;startSize=0;swimlaneHead=0;swimlaneBody=0;fillColor=none;collapsible=0;dropTarget=0;points=[[0,0.5],[1,0.5]];portConstraint=eastwest;top=0;left=0;right=0;bottom=1;" vertex="1" parent="QN_ipXaBANNwWSyIa55B-114">
          <mxGeometry y="30" width="180" height="30" as="geometry" />
        </mxCell>
        <mxCell id="QN_ipXaBANNwWSyIa55B-116" value="PK" style="shape=partialRectangle;connectable=0;fillColor=none;top=0;left=0;bottom=0;right=0;fontStyle=1;overflow=hidden;whiteSpace=wrap;html=1;" vertex="1" parent="QN_ipXaBANNwWSyIa55B-115">
          <mxGeometry width="30" height="30" as="geometry">
            <mxRectangle width="30" height="30" as="alternateBounds" />
          </mxGeometry>
        </mxCell>
        <mxCell id="QN_ipXaBANNwWSyIa55B-117" value="IdRaca" style="shape=partialRectangle;connectable=0;fillColor=none;top=0;left=0;bottom=0;right=0;align=left;spacingLeft=6;fontStyle=5;overflow=hidden;whiteSpace=wrap;html=1;" vertex="1" parent="QN_ipXaBANNwWSyIa55B-115">
          <mxGeometry x="30" width="150" height="30" as="geometry">
            <mxRectangle width="150" height="30" as="alternateBounds" />
          </mxGeometry>
        </mxCell>
        <mxCell id="QN_ipXaBANNwWSyIa55B-118" value="" style="shape=tableRow;horizontal=0;startSize=0;swimlaneHead=0;swimlaneBody=0;fillColor=none;collapsible=0;dropTarget=0;points=[[0,0.5],[1,0.5]];portConstraint=eastwest;top=0;left=0;right=0;bottom=0;" vertex="1" parent="QN_ipXaBANNwWSyIa55B-114">
          <mxGeometry y="60" width="180" height="30" as="geometry" />
        </mxCell>
        <mxCell id="QN_ipXaBANNwWSyIa55B-119" value="" style="shape=partialRectangle;connectable=0;fillColor=none;top=0;left=0;bottom=0;right=0;editable=1;overflow=hidden;whiteSpace=wrap;html=1;" vertex="1" parent="QN_ipXaBANNwWSyIa55B-118">
          <mxGeometry width="30" height="30" as="geometry">
            <mxRectangle width="30" height="30" as="alternateBounds" />
          </mxGeometry>
        </mxCell>
        <mxCell id="QN_ipXaBANNwWSyIa55B-120" value="" style="shape=partialRectangle;connectable=0;fillColor=none;top=0;left=0;bottom=0;right=0;align=left;spacingLeft=6;overflow=hidden;whiteSpace=wrap;html=1;" vertex="1" parent="QN_ipXaBANNwWSyIa55B-118">
          <mxGeometry x="30" width="150" height="30" as="geometry">
            <mxRectangle width="150" height="30" as="alternateBounds" />
          </mxGeometry>
        </mxCell>
        <mxCell id="QN_ipXaBANNwWSyIa55B-132" value="" style="edgeStyle=entityRelationEdgeStyle;fontSize=12;html=1;endArrow=ERoneToMany;rounded=0;exitX=0;exitY=0.5;exitDx=0;exitDy=0;entryX=1;entryY=0.5;entryDx=0;entryDy=0;" edge="1" parent="1" source="QN_ipXaBANNwWSyIa55B-95" target="QN_ipXaBANNwWSyIa55B-59">
          <mxGeometry width="100" height="100" relative="1" as="geometry">
            <mxPoint x="2862" y="217" as="sourcePoint" />
            <mxPoint x="2962" y="117" as="targetPoint" />
            <Array as="points">
              <mxPoint x="2830" y="218" />
            </Array>
          </mxGeometry>
        </mxCell>
        <mxCell id="Wmc4pKRZCXl6si6PgpEI-1" value="" style="edgeStyle=entityRelationEdgeStyle;fontSize=12;html=1;endArrow=ERmany;rounded=0;exitX=1.006;exitY=0.243;exitDx=0;exitDy=0;exitPerimeter=0;entryX=0;entryY=0.5;entryDx=0;entryDy=0;" edge="1" parent="1" source="QN_ipXaBANNwWSyIa55B-2" target="QN_ipXaBANNwWSyIa55B-21">
          <mxGeometry width="100" height="100" relative="1" as="geometry">
            <mxPoint x="1879" y="356" as="sourcePoint" />
            <mxPoint x="1979" y="256" as="targetPoint" />
          </mxGeometry>
        </mxCell>
        <mxCell id="Wmc4pKRZCXl6si6PgpEI-43" value="" style="edgeStyle=entityRelationEdgeStyle;fontSize=12;html=1;endArrow=ERmany;rounded=0;entryX=0;entryY=0.5;entryDx=0;entryDy=0;" edge="1" parent="1" target="QN_ipXaBANNwWSyIa55B-31">
          <mxGeometry width="100" height="100" relative="1" as="geometry">
            <mxPoint x="2193" y="293" as="sourcePoint" />
            <mxPoint x="2344" y="354" as="targetPoint" />
          </mxGeometry>
        </mxCell>
        <mxCell id="Wmc4pKRZCXl6si6PgpEI-44" value="" style="edgeStyle=entityRelationEdgeStyle;fontSize=12;html=1;endArrow=ERoneToMany;rounded=0;exitX=0;exitY=0.5;exitDx=0;exitDy=0;entryX=1;entryY=0.5;entryDx=0;entryDy=0;" edge="1" parent="1" source="QN_ipXaBANNwWSyIa55B-108" target="QN_ipXaBANNwWSyIa55B-47">
          <mxGeometry width="100" height="100" relative="1" as="geometry">
            <mxPoint x="3059" y="179" as="sourcePoint" />
            <mxPoint x="2896" y="279" as="targetPoint" />
            <Array as="points">
              <mxPoint x="2880" y="282" />
            </Array>
          </mxGeometry>
        </mxCell>
        <mxCell id="Wmc4pKRZCXl6si6PgpEI-45" value="" style="edgeStyle=entityRelationEdgeStyle;fontSize=12;html=1;endArrow=ERoneToMany;rounded=0;exitX=0;exitY=0.5;exitDx=0;exitDy=0;entryX=1;entryY=0.5;entryDx=0;entryDy=0;" edge="1" parent="1" source="QN_ipXaBANNwWSyIa55B-115" target="QN_ipXaBANNwWSyIa55B-50">
          <mxGeometry width="100" height="100" relative="1" as="geometry">
            <mxPoint x="3057" y="336" as="sourcePoint" />
            <mxPoint x="2891" y="319" as="targetPoint" />
            <Array as="points">
              <mxPoint x="2925" y="356" />
              <mxPoint x="2959" y="401" />
            </Array>
          </mxGeometry>
        </mxCell>
        <mxCell id="Wmc4pKRZCXl6si6PgpEI-46" value="" style="edgeStyle=entityRelationEdgeStyle;fontSize=12;html=1;endArrow=ERoneToMany;rounded=0;exitX=0.005;exitY=0.463;exitDx=0;exitDy=0;entryX=1;entryY=0.5;entryDx=0;entryDy=0;exitPerimeter=0;" edge="1" parent="1" source="QN_ipXaBANNwWSyIa55B-77" target="QN_ipXaBANNwWSyIa55B-34">
          <mxGeometry width="100" height="100" relative="1" as="geometry">
            <mxPoint x="2687" y="160" as="sourcePoint" />
            <mxPoint x="2524" y="260" as="targetPoint" />
            <Array as="points">
              <mxPoint x="2508" y="263" />
            </Array>
          </mxGeometry>
        </mxCell>
        <mxCell id="Wmc4pKRZCXl6si6PgpEI-47" value="Clinica" style="shape=table;startSize=30;container=1;collapsible=0;childLayout=tableLayout;strokeColor=#9673a6;fontSize=16;fillColor=#e1d5e7;" vertex="1" parent="1">
          <mxGeometry x="1511" y="983.5" width="274" height="110" as="geometry" />
        </mxCell>
        <mxCell id="Wmc4pKRZCXl6si6PgpEI-48" value="" style="shape=tableRow;horizontal=0;startSize=0;swimlaneHead=0;swimlaneBody=0;strokeColor=inherit;top=0;left=0;bottom=0;right=0;collapsible=0;dropTarget=0;fillColor=none;points=[[0,0.5],[1,0.5]];portConstraint=eastwest;fontSize=16;" vertex="1" parent="Wmc4pKRZCXl6si6PgpEI-47">
          <mxGeometry y="30" width="274" height="40" as="geometry" />
        </mxCell>
        <mxCell id="Wmc4pKRZCXl6si6PgpEI-49" value="IdClinica" style="shape=partialRectangle;html=1;whiteSpace=wrap;connectable=0;strokeColor=inherit;overflow=hidden;fillColor=none;top=0;left=0;bottom=0;right=0;pointerEvents=1;fontSize=16;" vertex="1" parent="Wmc4pKRZCXl6si6PgpEI-48">
          <mxGeometry width="95" height="40" as="geometry">
            <mxRectangle width="95" height="40" as="alternateBounds" />
          </mxGeometry>
        </mxCell>
        <mxCell id="Wmc4pKRZCXl6si6PgpEI-50" value="Clinica" style="shape=partialRectangle;html=1;whiteSpace=wrap;connectable=0;strokeColor=inherit;overflow=hidden;fillColor=none;top=0;left=0;bottom=0;right=0;pointerEvents=1;fontSize=16;rowspan=1;colspan=2;" vertex="1" parent="Wmc4pKRZCXl6si6PgpEI-48">
          <mxGeometry x="95" width="179" height="40" as="geometry">
            <mxRectangle width="92" height="40" as="alternateBounds" />
          </mxGeometry>
        </mxCell>
        <mxCell id="Wmc4pKRZCXl6si6PgpEI-51" value="" style="shape=partialRectangle;html=1;whiteSpace=wrap;connectable=0;strokeColor=inherit;overflow=hidden;fillColor=none;top=0;left=0;bottom=0;right=0;pointerEvents=1;fontSize=16;" visible="0" vertex="1" parent="Wmc4pKRZCXl6si6PgpEI-48">
          <mxGeometry x="187" width="87" height="40" as="geometry">
            <mxRectangle width="87" height="40" as="alternateBounds" />
          </mxGeometry>
        </mxCell>
        <mxCell id="Wmc4pKRZCXl6si6PgpEI-52" value="" style="shape=tableRow;horizontal=0;startSize=0;swimlaneHead=0;swimlaneBody=0;strokeColor=inherit;top=0;left=0;bottom=0;right=0;collapsible=0;dropTarget=0;fillColor=none;points=[[0,0.5],[1,0.5]];portConstraint=eastwest;fontSize=16;" vertex="1" parent="Wmc4pKRZCXl6si6PgpEI-47">
          <mxGeometry y="70" width="274" height="40" as="geometry" />
        </mxCell>
        <mxCell id="Wmc4pKRZCXl6si6PgpEI-53" value="1" style="shape=partialRectangle;html=1;whiteSpace=wrap;connectable=0;strokeColor=inherit;overflow=hidden;fillColor=none;top=0;left=0;bottom=0;right=0;pointerEvents=1;fontSize=16;" vertex="1" parent="Wmc4pKRZCXl6si6PgpEI-52">
          <mxGeometry width="95" height="40" as="geometry">
            <mxRectangle width="95" height="40" as="alternateBounds" />
          </mxGeometry>
        </mxCell>
        <mxCell id="Wmc4pKRZCXl6si6PgpEI-54" value="Onix" style="shape=partialRectangle;html=1;whiteSpace=wrap;connectable=0;strokeColor=inherit;overflow=hidden;fillColor=none;top=0;left=0;bottom=0;right=0;pointerEvents=1;fontSize=16;rowspan=1;colspan=2;" vertex="1" parent="Wmc4pKRZCXl6si6PgpEI-52">
          <mxGeometry x="95" width="179" height="40" as="geometry">
            <mxRectangle width="92" height="40" as="alternateBounds" />
          </mxGeometry>
        </mxCell>
        <mxCell id="Wmc4pKRZCXl6si6PgpEI-55" value="" style="shape=partialRectangle;html=1;whiteSpace=wrap;connectable=0;strokeColor=inherit;overflow=hidden;fillColor=none;top=0;left=0;bottom=0;right=0;pointerEvents=1;fontSize=16;" visible="0" vertex="1" parent="Wmc4pKRZCXl6si6PgpEI-52">
          <mxGeometry x="187" width="87" height="40" as="geometry">
            <mxRectangle width="87" height="40" as="alternateBounds" />
          </mxGeometry>
        </mxCell>
        <mxCell id="Wmc4pKRZCXl6si6PgpEI-81" value="Consulta" style="shape=table;startSize=30;container=1;collapsible=0;childLayout=tableLayout;strokeColor=#9673a6;fontSize=16;fillColor=#e1d5e7;" vertex="1" parent="1">
          <mxGeometry x="1925" y="973" width="555" height="190" as="geometry" />
        </mxCell>
        <mxCell id="Wmc4pKRZCXl6si6PgpEI-82" style="shape=tableRow;horizontal=0;startSize=0;swimlaneHead=0;swimlaneBody=0;strokeColor=inherit;top=0;left=0;bottom=0;right=0;collapsible=0;dropTarget=0;fillColor=none;points=[[0,0.5],[1,0.5]];portConstraint=eastwest;fontSize=16;" vertex="1" parent="Wmc4pKRZCXl6si6PgpEI-81">
          <mxGeometry y="30" width="555" height="40" as="geometry" />
        </mxCell>
        <mxCell id="Wmc4pKRZCXl6si6PgpEI-83" value="IdConsulta" style="shape=partialRectangle;html=1;whiteSpace=wrap;connectable=0;strokeColor=inherit;overflow=hidden;fillColor=none;top=0;left=0;bottom=0;right=0;pointerEvents=1;fontSize=16;" vertex="1" parent="Wmc4pKRZCXl6si6PgpEI-82">
          <mxGeometry width="183" height="40" as="geometry">
            <mxRectangle width="183" height="40" as="alternateBounds" />
          </mxGeometry>
        </mxCell>
        <mxCell id="Wmc4pKRZCXl6si6PgpEI-84" value="IdVeterinario" style="shape=partialRectangle;html=1;whiteSpace=wrap;connectable=0;strokeColor=inherit;overflow=hidden;fillColor=none;top=0;left=0;bottom=0;right=0;pointerEvents=1;fontSize=16;" vertex="1" parent="Wmc4pKRZCXl6si6PgpEI-82">
          <mxGeometry x="183" width="187" height="40" as="geometry">
            <mxRectangle width="187" height="40" as="alternateBounds" />
          </mxGeometry>
        </mxCell>
        <mxCell id="Wmc4pKRZCXl6si6PgpEI-85" value="IdPET" style="shape=partialRectangle;html=1;whiteSpace=wrap;connectable=0;strokeColor=inherit;overflow=hidden;fillColor=none;top=0;left=0;bottom=0;right=0;pointerEvents=1;fontSize=16;" vertex="1" parent="Wmc4pKRZCXl6si6PgpEI-82">
          <mxGeometry x="370" width="185" height="40" as="geometry">
            <mxRectangle width="185" height="40" as="alternateBounds" />
          </mxGeometry>
        </mxCell>
        <mxCell id="Wmc4pKRZCXl6si6PgpEI-86" value="" style="shape=tableRow;horizontal=0;startSize=0;swimlaneHead=0;swimlaneBody=0;strokeColor=inherit;top=0;left=0;bottom=0;right=0;collapsible=0;dropTarget=0;fillColor=none;points=[[0,0.5],[1,0.5]];portConstraint=eastwest;fontSize=16;" vertex="1" parent="Wmc4pKRZCXl6si6PgpEI-81">
          <mxGeometry y="70" width="555" height="40" as="geometry" />
        </mxCell>
        <mxCell id="Wmc4pKRZCXl6si6PgpEI-87" value="1" style="shape=partialRectangle;html=1;whiteSpace=wrap;connectable=0;strokeColor=inherit;overflow=hidden;fillColor=none;top=0;left=0;bottom=0;right=0;pointerEvents=1;fontSize=16;" vertex="1" parent="Wmc4pKRZCXl6si6PgpEI-86">
          <mxGeometry width="183" height="40" as="geometry">
            <mxRectangle width="183" height="40" as="alternateBounds" />
          </mxGeometry>
        </mxCell>
        <mxCell id="Wmc4pKRZCXl6si6PgpEI-88" value="1" style="shape=partialRectangle;html=1;whiteSpace=wrap;connectable=0;strokeColor=inherit;overflow=hidden;fillColor=none;top=0;left=0;bottom=0;right=0;pointerEvents=1;fontSize=16;" vertex="1" parent="Wmc4pKRZCXl6si6PgpEI-86">
          <mxGeometry x="183" width="187" height="40" as="geometry">
            <mxRectangle width="187" height="40" as="alternateBounds" />
          </mxGeometry>
        </mxCell>
        <mxCell id="Wmc4pKRZCXl6si6PgpEI-89" value="2" style="shape=partialRectangle;html=1;whiteSpace=wrap;connectable=0;strokeColor=inherit;overflow=hidden;fillColor=none;top=0;left=0;bottom=0;right=0;pointerEvents=1;fontSize=16;" vertex="1" parent="Wmc4pKRZCXl6si6PgpEI-86">
          <mxGeometry x="370" width="185" height="40" as="geometry">
            <mxRectangle width="185" height="40" as="alternateBounds" />
          </mxGeometry>
        </mxCell>
        <mxCell id="Wmc4pKRZCXl6si6PgpEI-90" value="" style="shape=tableRow;horizontal=0;startSize=0;swimlaneHead=0;swimlaneBody=0;strokeColor=inherit;top=0;left=0;bottom=0;right=0;collapsible=0;dropTarget=0;fillColor=none;points=[[0,0.5],[1,0.5]];portConstraint=eastwest;fontSize=16;" vertex="1" parent="Wmc4pKRZCXl6si6PgpEI-81">
          <mxGeometry y="110" width="555" height="40" as="geometry" />
        </mxCell>
        <mxCell id="Wmc4pKRZCXl6si6PgpEI-91" value="2" style="shape=partialRectangle;html=1;whiteSpace=wrap;connectable=0;strokeColor=inherit;overflow=hidden;fillColor=none;top=0;left=0;bottom=0;right=0;pointerEvents=1;fontSize=16;" vertex="1" parent="Wmc4pKRZCXl6si6PgpEI-90">
          <mxGeometry width="183" height="40" as="geometry">
            <mxRectangle width="183" height="40" as="alternateBounds" />
          </mxGeometry>
        </mxCell>
        <mxCell id="Wmc4pKRZCXl6si6PgpEI-92" value="4" style="shape=partialRectangle;html=1;whiteSpace=wrap;connectable=0;strokeColor=inherit;overflow=hidden;fillColor=none;top=0;left=0;bottom=0;right=0;pointerEvents=1;fontSize=16;" vertex="1" parent="Wmc4pKRZCXl6si6PgpEI-90">
          <mxGeometry x="183" width="187" height="40" as="geometry">
            <mxRectangle width="187" height="40" as="alternateBounds" />
          </mxGeometry>
        </mxCell>
        <mxCell id="Wmc4pKRZCXl6si6PgpEI-93" value="5" style="shape=partialRectangle;html=1;whiteSpace=wrap;connectable=0;strokeColor=inherit;overflow=hidden;fillColor=none;top=0;left=0;bottom=0;right=0;pointerEvents=1;fontSize=16;" vertex="1" parent="Wmc4pKRZCXl6si6PgpEI-90">
          <mxGeometry x="370" width="185" height="40" as="geometry">
            <mxRectangle width="185" height="40" as="alternateBounds" />
          </mxGeometry>
        </mxCell>
        <mxCell id="Wmc4pKRZCXl6si6PgpEI-94" style="shape=tableRow;horizontal=0;startSize=0;swimlaneHead=0;swimlaneBody=0;strokeColor=inherit;top=0;left=0;bottom=0;right=0;collapsible=0;dropTarget=0;fillColor=none;points=[[0,0.5],[1,0.5]];portConstraint=eastwest;fontSize=16;" vertex="1" parent="Wmc4pKRZCXl6si6PgpEI-81">
          <mxGeometry y="150" width="555" height="40" as="geometry" />
        </mxCell>
        <mxCell id="Wmc4pKRZCXl6si6PgpEI-95" value="3" style="shape=partialRectangle;html=1;whiteSpace=wrap;connectable=0;strokeColor=inherit;overflow=hidden;fillColor=none;top=0;left=0;bottom=0;right=0;pointerEvents=1;fontSize=16;" vertex="1" parent="Wmc4pKRZCXl6si6PgpEI-94">
          <mxGeometry width="183" height="40" as="geometry">
            <mxRectangle width="183" height="40" as="alternateBounds" />
          </mxGeometry>
        </mxCell>
        <mxCell id="Wmc4pKRZCXl6si6PgpEI-96" value="5" style="shape=partialRectangle;html=1;whiteSpace=wrap;connectable=0;strokeColor=inherit;overflow=hidden;fillColor=none;top=0;left=0;bottom=0;right=0;pointerEvents=1;fontSize=16;" vertex="1" parent="Wmc4pKRZCXl6si6PgpEI-94">
          <mxGeometry x="183" width="187" height="40" as="geometry">
            <mxRectangle width="187" height="40" as="alternateBounds" />
          </mxGeometry>
        </mxCell>
        <mxCell id="Wmc4pKRZCXl6si6PgpEI-97" value="6" style="shape=partialRectangle;html=1;whiteSpace=wrap;connectable=0;strokeColor=inherit;overflow=hidden;fillColor=none;top=0;left=0;bottom=0;right=0;pointerEvents=1;fontSize=16;" vertex="1" parent="Wmc4pKRZCXl6si6PgpEI-94">
          <mxGeometry x="370" width="185" height="40" as="geometry">
            <mxRectangle width="185" height="40" as="alternateBounds" />
          </mxGeometry>
        </mxCell>
        <mxCell id="Wmc4pKRZCXl6si6PgpEI-98" value="Veterinario" style="shape=table;startSize=30;container=1;collapsible=0;childLayout=tableLayout;strokeColor=#9673a6;fontSize=16;fillColor=#e1d5e7;" vertex="1" parent="1">
          <mxGeometry x="1356" y="1167.5" width="315" height="190" as="geometry" />
        </mxCell>
        <mxCell id="Wmc4pKRZCXl6si6PgpEI-99" value="" style="shape=tableRow;horizontal=0;startSize=0;swimlaneHead=0;swimlaneBody=0;strokeColor=inherit;top=0;left=0;bottom=0;right=0;collapsible=0;dropTarget=0;fillColor=none;points=[[0,0.5],[1,0.5]];portConstraint=eastwest;fontSize=16;" vertex="1" parent="Wmc4pKRZCXl6si6PgpEI-98">
          <mxGeometry y="30" width="315" height="40" as="geometry" />
        </mxCell>
        <mxCell id="Wmc4pKRZCXl6si6PgpEI-100" value="IdVeterinario" style="shape=partialRectangle;html=1;whiteSpace=wrap;connectable=0;strokeColor=inherit;overflow=hidden;fillColor=none;top=0;left=0;bottom=0;right=0;pointerEvents=1;fontSize=16;rowspan=1;colspan=2;" vertex="1" parent="Wmc4pKRZCXl6si6PgpEI-99">
          <mxGeometry width="147" height="40" as="geometry">
            <mxRectangle width="82" height="40" as="alternateBounds" />
          </mxGeometry>
        </mxCell>
        <mxCell id="Wmc4pKRZCXl6si6PgpEI-101" value="IdCliente" style="shape=partialRectangle;html=1;whiteSpace=wrap;connectable=0;strokeColor=inherit;overflow=hidden;fillColor=none;top=0;left=0;bottom=0;right=0;pointerEvents=1;fontSize=16;" visible="0" vertex="1" parent="Wmc4pKRZCXl6si6PgpEI-99">
          <mxGeometry x="82" width="65" height="40" as="geometry">
            <mxRectangle width="65" height="40" as="alternateBounds" />
          </mxGeometry>
        </mxCell>
        <mxCell id="Wmc4pKRZCXl6si6PgpEI-102" value="IdConsulta" style="shape=partialRectangle;html=1;whiteSpace=wrap;connectable=0;strokeColor=inherit;overflow=hidden;fillColor=none;top=0;left=0;bottom=0;right=0;pointerEvents=1;fontSize=16;rowspan=1;colspan=2;" vertex="1" parent="Wmc4pKRZCXl6si6PgpEI-99">
          <mxGeometry x="147" width="168" height="40" as="geometry">
            <mxRectangle width="93" height="40" as="alternateBounds" />
          </mxGeometry>
        </mxCell>
        <mxCell id="Wmc4pKRZCXl6si6PgpEI-103" value="" style="shape=partialRectangle;html=1;whiteSpace=wrap;connectable=0;strokeColor=inherit;overflow=hidden;fillColor=none;top=0;left=0;bottom=0;right=0;pointerEvents=1;fontSize=16;" visible="0" vertex="1" parent="Wmc4pKRZCXl6si6PgpEI-99">
          <mxGeometry x="240" width="75" height="40" as="geometry">
            <mxRectangle width="75" height="40" as="alternateBounds" />
          </mxGeometry>
        </mxCell>
        <mxCell id="Wmc4pKRZCXl6si6PgpEI-106" value="" style="shape=tableRow;horizontal=0;startSize=0;swimlaneHead=0;swimlaneBody=0;strokeColor=inherit;top=0;left=0;bottom=0;right=0;collapsible=0;dropTarget=0;fillColor=none;points=[[0,0.5],[1,0.5]];portConstraint=eastwest;fontSize=16;" vertex="1" parent="Wmc4pKRZCXl6si6PgpEI-98">
          <mxGeometry y="70" width="315" height="40" as="geometry" />
        </mxCell>
        <mxCell id="Wmc4pKRZCXl6si6PgpEI-107" value="1" style="shape=partialRectangle;html=1;whiteSpace=wrap;connectable=0;strokeColor=inherit;overflow=hidden;fillColor=none;top=0;left=0;bottom=0;right=0;pointerEvents=1;fontSize=16;rowspan=1;colspan=2;" vertex="1" parent="Wmc4pKRZCXl6si6PgpEI-106">
          <mxGeometry width="147" height="40" as="geometry">
            <mxRectangle width="82" height="40" as="alternateBounds" />
          </mxGeometry>
        </mxCell>
        <mxCell id="Wmc4pKRZCXl6si6PgpEI-108" value="1" style="shape=partialRectangle;html=1;whiteSpace=wrap;connectable=0;strokeColor=inherit;overflow=hidden;fillColor=none;top=0;left=0;bottom=0;right=0;pointerEvents=1;fontSize=16;" visible="0" vertex="1" parent="Wmc4pKRZCXl6si6PgpEI-106">
          <mxGeometry x="82" width="65" height="40" as="geometry">
            <mxRectangle width="65" height="40" as="alternateBounds" />
          </mxGeometry>
        </mxCell>
        <mxCell id="Wmc4pKRZCXl6si6PgpEI-109" value="1" style="shape=partialRectangle;html=1;whiteSpace=wrap;connectable=0;strokeColor=inherit;overflow=hidden;fillColor=none;top=0;left=0;bottom=0;right=0;pointerEvents=1;fontSize=16;rowspan=1;colspan=2;" vertex="1" parent="Wmc4pKRZCXl6si6PgpEI-106">
          <mxGeometry x="147" width="168" height="40" as="geometry">
            <mxRectangle width="93" height="40" as="alternateBounds" />
          </mxGeometry>
        </mxCell>
        <mxCell id="Wmc4pKRZCXl6si6PgpEI-110" value="" style="shape=partialRectangle;html=1;whiteSpace=wrap;connectable=0;strokeColor=inherit;overflow=hidden;fillColor=none;top=0;left=0;bottom=0;right=0;pointerEvents=1;fontSize=16;" visible="0" vertex="1" parent="Wmc4pKRZCXl6si6PgpEI-106">
          <mxGeometry x="240" width="75" height="40" as="geometry">
            <mxRectangle width="75" height="40" as="alternateBounds" />
          </mxGeometry>
        </mxCell>
        <mxCell id="Wmc4pKRZCXl6si6PgpEI-113" value="" style="shape=tableRow;horizontal=0;startSize=0;swimlaneHead=0;swimlaneBody=0;strokeColor=inherit;top=0;left=0;bottom=0;right=0;collapsible=0;dropTarget=0;fillColor=none;points=[[0,0.5],[1,0.5]];portConstraint=eastwest;fontSize=16;" vertex="1" parent="Wmc4pKRZCXl6si6PgpEI-98">
          <mxGeometry y="110" width="315" height="40" as="geometry" />
        </mxCell>
        <mxCell id="Wmc4pKRZCXl6si6PgpEI-114" value="4" style="shape=partialRectangle;html=1;whiteSpace=wrap;connectable=0;strokeColor=inherit;overflow=hidden;fillColor=none;top=0;left=0;bottom=0;right=0;pointerEvents=1;fontSize=16;rowspan=1;colspan=2;" vertex="1" parent="Wmc4pKRZCXl6si6PgpEI-113">
          <mxGeometry width="147" height="40" as="geometry">
            <mxRectangle width="82" height="40" as="alternateBounds" />
          </mxGeometry>
        </mxCell>
        <mxCell id="Wmc4pKRZCXl6si6PgpEI-115" value="2" style="shape=partialRectangle;html=1;whiteSpace=wrap;connectable=0;strokeColor=inherit;overflow=hidden;fillColor=none;top=0;left=0;bottom=0;right=0;pointerEvents=1;fontSize=16;" visible="0" vertex="1" parent="Wmc4pKRZCXl6si6PgpEI-113">
          <mxGeometry x="82" width="65" height="40" as="geometry">
            <mxRectangle width="65" height="40" as="alternateBounds" />
          </mxGeometry>
        </mxCell>
        <mxCell id="Wmc4pKRZCXl6si6PgpEI-116" value="2" style="shape=partialRectangle;html=1;whiteSpace=wrap;connectable=0;strokeColor=inherit;overflow=hidden;fillColor=none;top=0;left=0;bottom=0;right=0;pointerEvents=1;fontSize=16;rowspan=1;colspan=2;" vertex="1" parent="Wmc4pKRZCXl6si6PgpEI-113">
          <mxGeometry x="147" width="168" height="40" as="geometry">
            <mxRectangle width="93" height="40" as="alternateBounds" />
          </mxGeometry>
        </mxCell>
        <mxCell id="Wmc4pKRZCXl6si6PgpEI-117" value="" style="shape=partialRectangle;html=1;whiteSpace=wrap;connectable=0;strokeColor=inherit;overflow=hidden;fillColor=none;top=0;left=0;bottom=0;right=0;pointerEvents=1;fontSize=16;" visible="0" vertex="1" parent="Wmc4pKRZCXl6si6PgpEI-113">
          <mxGeometry x="240" width="75" height="40" as="geometry">
            <mxRectangle width="75" height="40" as="alternateBounds" />
          </mxGeometry>
        </mxCell>
        <mxCell id="Wmc4pKRZCXl6si6PgpEI-120" style="shape=tableRow;horizontal=0;startSize=0;swimlaneHead=0;swimlaneBody=0;strokeColor=inherit;top=0;left=0;bottom=0;right=0;collapsible=0;dropTarget=0;fillColor=none;points=[[0,0.5],[1,0.5]];portConstraint=eastwest;fontSize=16;" vertex="1" parent="Wmc4pKRZCXl6si6PgpEI-98">
          <mxGeometry y="150" width="315" height="40" as="geometry" />
        </mxCell>
        <mxCell id="Wmc4pKRZCXl6si6PgpEI-121" value="5" style="shape=partialRectangle;html=1;whiteSpace=wrap;connectable=0;strokeColor=inherit;overflow=hidden;fillColor=none;top=0;left=0;bottom=0;right=0;pointerEvents=1;fontSize=16;rowspan=1;colspan=2;" vertex="1" parent="Wmc4pKRZCXl6si6PgpEI-120">
          <mxGeometry width="147" height="40" as="geometry">
            <mxRectangle width="82" height="40" as="alternateBounds" />
          </mxGeometry>
        </mxCell>
        <mxCell id="Wmc4pKRZCXl6si6PgpEI-122" value="3" style="shape=partialRectangle;html=1;whiteSpace=wrap;connectable=0;strokeColor=inherit;overflow=hidden;fillColor=none;top=0;left=0;bottom=0;right=0;pointerEvents=1;fontSize=16;" visible="0" vertex="1" parent="Wmc4pKRZCXl6si6PgpEI-120">
          <mxGeometry x="82" width="65" height="40" as="geometry">
            <mxRectangle width="65" height="40" as="alternateBounds" />
          </mxGeometry>
        </mxCell>
        <mxCell id="Wmc4pKRZCXl6si6PgpEI-123" value="3" style="shape=partialRectangle;html=1;whiteSpace=wrap;connectable=0;strokeColor=inherit;overflow=hidden;fillColor=none;top=0;left=0;bottom=0;right=0;pointerEvents=1;fontSize=16;rowspan=1;colspan=2;" vertex="1" parent="Wmc4pKRZCXl6si6PgpEI-120">
          <mxGeometry x="147" width="168" height="40" as="geometry">
            <mxRectangle width="93" height="40" as="alternateBounds" />
          </mxGeometry>
        </mxCell>
        <mxCell id="Wmc4pKRZCXl6si6PgpEI-124" style="shape=partialRectangle;html=1;whiteSpace=wrap;connectable=0;strokeColor=inherit;overflow=hidden;fillColor=none;top=0;left=0;bottom=0;right=0;pointerEvents=1;fontSize=16;" visible="0" vertex="1" parent="Wmc4pKRZCXl6si6PgpEI-120">
          <mxGeometry x="240" width="75" height="40" as="geometry">
            <mxRectangle width="75" height="40" as="alternateBounds" />
          </mxGeometry>
        </mxCell>
        <mxCell id="Wmc4pKRZCXl6si6PgpEI-127" value="PET" style="shape=table;startSize=30;container=1;collapsible=0;childLayout=tableLayout;strokeColor=#9673a6;fontSize=16;fillColor=#e1d5e7;" vertex="1" parent="1">
          <mxGeometry x="1785" y="1202" width="738" height="190" as="geometry" />
        </mxCell>
        <mxCell id="Wmc4pKRZCXl6si6PgpEI-128" style="shape=tableRow;horizontal=0;startSize=0;swimlaneHead=0;swimlaneBody=0;strokeColor=inherit;top=0;left=0;bottom=0;right=0;collapsible=0;dropTarget=0;fillColor=none;points=[[0,0.5],[1,0.5]];portConstraint=eastwest;fontSize=16;" vertex="1" parent="Wmc4pKRZCXl6si6PgpEI-127">
          <mxGeometry y="30" width="738" height="40" as="geometry" />
        </mxCell>
        <mxCell id="Wmc4pKRZCXl6si6PgpEI-144" value="IdPet" style="shape=partialRectangle;html=1;whiteSpace=wrap;connectable=0;strokeColor=inherit;overflow=hidden;fillColor=none;top=0;left=0;bottom=0;right=0;pointerEvents=1;fontSize=16;" vertex="1" parent="Wmc4pKRZCXl6si6PgpEI-128">
          <mxGeometry width="183" height="40" as="geometry">
            <mxRectangle width="183" height="40" as="alternateBounds" />
          </mxGeometry>
        </mxCell>
        <mxCell id="Wmc4pKRZCXl6si6PgpEI-129" value="IdTipodepet" style="shape=partialRectangle;html=1;whiteSpace=wrap;connectable=0;strokeColor=inherit;overflow=hidden;fillColor=none;top=0;left=0;bottom=0;right=0;pointerEvents=1;fontSize=16;" vertex="1" parent="Wmc4pKRZCXl6si6PgpEI-128">
          <mxGeometry x="183" width="183" height="40" as="geometry">
            <mxRectangle width="183" height="40" as="alternateBounds" />
          </mxGeometry>
        </mxCell>
        <mxCell id="Wmc4pKRZCXl6si6PgpEI-130" value="IdDono" style="shape=partialRectangle;html=1;whiteSpace=wrap;connectable=0;strokeColor=inherit;overflow=hidden;fillColor=none;top=0;left=0;bottom=0;right=0;pointerEvents=1;fontSize=16;" vertex="1" parent="Wmc4pKRZCXl6si6PgpEI-128">
          <mxGeometry x="366" width="187" height="40" as="geometry">
            <mxRectangle width="187" height="40" as="alternateBounds" />
          </mxGeometry>
        </mxCell>
        <mxCell id="Wmc4pKRZCXl6si6PgpEI-131" value="IdRaca" style="shape=partialRectangle;html=1;whiteSpace=wrap;connectable=0;strokeColor=inherit;overflow=hidden;fillColor=none;top=0;left=0;bottom=0;right=0;pointerEvents=1;fontSize=16;" vertex="1" parent="Wmc4pKRZCXl6si6PgpEI-128">
          <mxGeometry x="553" width="185" height="40" as="geometry">
            <mxRectangle width="185" height="40" as="alternateBounds" />
          </mxGeometry>
        </mxCell>
        <mxCell id="Wmc4pKRZCXl6si6PgpEI-132" value="" style="shape=tableRow;horizontal=0;startSize=0;swimlaneHead=0;swimlaneBody=0;strokeColor=inherit;top=0;left=0;bottom=0;right=0;collapsible=0;dropTarget=0;fillColor=none;points=[[0,0.5],[1,0.5]];portConstraint=eastwest;fontSize=16;" vertex="1" parent="Wmc4pKRZCXl6si6PgpEI-127">
          <mxGeometry y="70" width="738" height="40" as="geometry" />
        </mxCell>
        <mxCell id="Wmc4pKRZCXl6si6PgpEI-145" value="2" style="shape=partialRectangle;html=1;whiteSpace=wrap;connectable=0;strokeColor=inherit;overflow=hidden;fillColor=none;top=0;left=0;bottom=0;right=0;pointerEvents=1;fontSize=16;" vertex="1" parent="Wmc4pKRZCXl6si6PgpEI-132">
          <mxGeometry width="183" height="40" as="geometry">
            <mxRectangle width="183" height="40" as="alternateBounds" />
          </mxGeometry>
        </mxCell>
        <mxCell id="Wmc4pKRZCXl6si6PgpEI-133" value="2" style="shape=partialRectangle;html=1;whiteSpace=wrap;connectable=0;strokeColor=inherit;overflow=hidden;fillColor=none;top=0;left=0;bottom=0;right=0;pointerEvents=1;fontSize=16;" vertex="1" parent="Wmc4pKRZCXl6si6PgpEI-132">
          <mxGeometry x="183" width="183" height="40" as="geometry">
            <mxRectangle width="183" height="40" as="alternateBounds" />
          </mxGeometry>
        </mxCell>
        <mxCell id="Wmc4pKRZCXl6si6PgpEI-134" value="1" style="shape=partialRectangle;html=1;whiteSpace=wrap;connectable=0;strokeColor=inherit;overflow=hidden;fillColor=none;top=0;left=0;bottom=0;right=0;pointerEvents=1;fontSize=16;" vertex="1" parent="Wmc4pKRZCXl6si6PgpEI-132">
          <mxGeometry x="366" width="187" height="40" as="geometry">
            <mxRectangle width="187" height="40" as="alternateBounds" />
          </mxGeometry>
        </mxCell>
        <mxCell id="Wmc4pKRZCXl6si6PgpEI-135" value="2" style="shape=partialRectangle;html=1;whiteSpace=wrap;connectable=0;strokeColor=inherit;overflow=hidden;fillColor=none;top=0;left=0;bottom=0;right=0;pointerEvents=1;fontSize=16;" vertex="1" parent="Wmc4pKRZCXl6si6PgpEI-132">
          <mxGeometry x="553" width="185" height="40" as="geometry">
            <mxRectangle width="185" height="40" as="alternateBounds" />
          </mxGeometry>
        </mxCell>
        <mxCell id="Wmc4pKRZCXl6si6PgpEI-136" value="" style="shape=tableRow;horizontal=0;startSize=0;swimlaneHead=0;swimlaneBody=0;strokeColor=inherit;top=0;left=0;bottom=0;right=0;collapsible=0;dropTarget=0;fillColor=none;points=[[0,0.5],[1,0.5]];portConstraint=eastwest;fontSize=16;" vertex="1" parent="Wmc4pKRZCXl6si6PgpEI-127">
          <mxGeometry y="110" width="738" height="40" as="geometry" />
        </mxCell>
        <mxCell id="Wmc4pKRZCXl6si6PgpEI-146" value="4" style="shape=partialRectangle;html=1;whiteSpace=wrap;connectable=0;strokeColor=inherit;overflow=hidden;fillColor=none;top=0;left=0;bottom=0;right=0;pointerEvents=1;fontSize=16;" vertex="1" parent="Wmc4pKRZCXl6si6PgpEI-136">
          <mxGeometry width="183" height="40" as="geometry">
            <mxRectangle width="183" height="40" as="alternateBounds" />
          </mxGeometry>
        </mxCell>
        <mxCell id="Wmc4pKRZCXl6si6PgpEI-137" value="6" style="shape=partialRectangle;html=1;whiteSpace=wrap;connectable=0;strokeColor=inherit;overflow=hidden;fillColor=none;top=0;left=0;bottom=0;right=0;pointerEvents=1;fontSize=16;" vertex="1" parent="Wmc4pKRZCXl6si6PgpEI-136">
          <mxGeometry x="183" width="183" height="40" as="geometry">
            <mxRectangle width="183" height="40" as="alternateBounds" />
          </mxGeometry>
        </mxCell>
        <mxCell id="Wmc4pKRZCXl6si6PgpEI-138" value="4" style="shape=partialRectangle;html=1;whiteSpace=wrap;connectable=0;strokeColor=inherit;overflow=hidden;fillColor=none;top=0;left=0;bottom=0;right=0;pointerEvents=1;fontSize=16;" vertex="1" parent="Wmc4pKRZCXl6si6PgpEI-136">
          <mxGeometry x="366" width="187" height="40" as="geometry">
            <mxRectangle width="187" height="40" as="alternateBounds" />
          </mxGeometry>
        </mxCell>
        <mxCell id="Wmc4pKRZCXl6si6PgpEI-139" value="5" style="shape=partialRectangle;html=1;whiteSpace=wrap;connectable=0;strokeColor=inherit;overflow=hidden;fillColor=none;top=0;left=0;bottom=0;right=0;pointerEvents=1;fontSize=16;" vertex="1" parent="Wmc4pKRZCXl6si6PgpEI-136">
          <mxGeometry x="553" width="185" height="40" as="geometry">
            <mxRectangle width="185" height="40" as="alternateBounds" />
          </mxGeometry>
        </mxCell>
        <mxCell id="Wmc4pKRZCXl6si6PgpEI-140" style="shape=tableRow;horizontal=0;startSize=0;swimlaneHead=0;swimlaneBody=0;strokeColor=inherit;top=0;left=0;bottom=0;right=0;collapsible=0;dropTarget=0;fillColor=none;points=[[0,0.5],[1,0.5]];portConstraint=eastwest;fontSize=16;" vertex="1" parent="Wmc4pKRZCXl6si6PgpEI-127">
          <mxGeometry y="150" width="738" height="40" as="geometry" />
        </mxCell>
        <mxCell id="Wmc4pKRZCXl6si6PgpEI-147" value="7" style="shape=partialRectangle;html=1;whiteSpace=wrap;connectable=0;strokeColor=inherit;overflow=hidden;fillColor=none;top=0;left=0;bottom=0;right=0;pointerEvents=1;fontSize=16;" vertex="1" parent="Wmc4pKRZCXl6si6PgpEI-140">
          <mxGeometry width="183" height="40" as="geometry">
            <mxRectangle width="183" height="40" as="alternateBounds" />
          </mxGeometry>
        </mxCell>
        <mxCell id="Wmc4pKRZCXl6si6PgpEI-141" value="8" style="shape=partialRectangle;html=1;whiteSpace=wrap;connectable=0;strokeColor=inherit;overflow=hidden;fillColor=none;top=0;left=0;bottom=0;right=0;pointerEvents=1;fontSize=16;" vertex="1" parent="Wmc4pKRZCXl6si6PgpEI-140">
          <mxGeometry x="183" width="183" height="40" as="geometry">
            <mxRectangle width="183" height="40" as="alternateBounds" />
          </mxGeometry>
        </mxCell>
        <mxCell id="Wmc4pKRZCXl6si6PgpEI-142" value="5" style="shape=partialRectangle;html=1;whiteSpace=wrap;connectable=0;strokeColor=inherit;overflow=hidden;fillColor=none;top=0;left=0;bottom=0;right=0;pointerEvents=1;fontSize=16;" vertex="1" parent="Wmc4pKRZCXl6si6PgpEI-140">
          <mxGeometry x="366" width="187" height="40" as="geometry">
            <mxRectangle width="187" height="40" as="alternateBounds" />
          </mxGeometry>
        </mxCell>
        <mxCell id="Wmc4pKRZCXl6si6PgpEI-143" value="6" style="shape=partialRectangle;html=1;whiteSpace=wrap;connectable=0;strokeColor=inherit;overflow=hidden;fillColor=none;top=0;left=0;bottom=0;right=0;pointerEvents=1;fontSize=16;" vertex="1" parent="Wmc4pKRZCXl6si6PgpEI-140">
          <mxGeometry x="553" width="185" height="40" as="geometry">
            <mxRectangle width="185" height="40" as="alternateBounds" />
          </mxGeometry>
        </mxCell>
        <mxCell id="Wmc4pKRZCXl6si6PgpEI-148" value="Tipo de PET" style="shape=table;startSize=30;container=1;collapsible=0;childLayout=tableLayout;strokeColor=#9673a6;fontSize=16;fillColor=#e1d5e7;" vertex="1" parent="1">
          <mxGeometry x="2725" y="962" width="274" height="110" as="geometry" />
        </mxCell>
        <mxCell id="Wmc4pKRZCXl6si6PgpEI-149" value="" style="shape=tableRow;horizontal=0;startSize=0;swimlaneHead=0;swimlaneBody=0;strokeColor=inherit;top=0;left=0;bottom=0;right=0;collapsible=0;dropTarget=0;fillColor=none;points=[[0,0.5],[1,0.5]];portConstraint=eastwest;fontSize=16;" vertex="1" parent="Wmc4pKRZCXl6si6PgpEI-148">
          <mxGeometry y="30" width="274" height="40" as="geometry" />
        </mxCell>
        <mxCell id="Wmc4pKRZCXl6si6PgpEI-150" value="IdTipodePET" style="shape=partialRectangle;html=1;whiteSpace=wrap;connectable=0;strokeColor=inherit;overflow=hidden;fillColor=none;top=0;left=0;bottom=0;right=0;pointerEvents=1;fontSize=16;" vertex="1" parent="Wmc4pKRZCXl6si6PgpEI-149">
          <mxGeometry width="124" height="40" as="geometry">
            <mxRectangle width="124" height="40" as="alternateBounds" />
          </mxGeometry>
        </mxCell>
        <mxCell id="Wmc4pKRZCXl6si6PgpEI-151" value="Tipo de PET" style="shape=partialRectangle;html=1;whiteSpace=wrap;connectable=0;strokeColor=inherit;overflow=hidden;fillColor=none;top=0;left=0;bottom=0;right=0;pointerEvents=1;fontSize=16;rowspan=1;colspan=2;" vertex="1" parent="Wmc4pKRZCXl6si6PgpEI-149">
          <mxGeometry x="124" width="150" height="40" as="geometry">
            <mxRectangle width="63" height="40" as="alternateBounds" />
          </mxGeometry>
        </mxCell>
        <mxCell id="Wmc4pKRZCXl6si6PgpEI-152" value="" style="shape=partialRectangle;html=1;whiteSpace=wrap;connectable=0;strokeColor=inherit;overflow=hidden;fillColor=none;top=0;left=0;bottom=0;right=0;pointerEvents=1;fontSize=16;" visible="0" vertex="1" parent="Wmc4pKRZCXl6si6PgpEI-149">
          <mxGeometry x="187" width="87" height="40" as="geometry">
            <mxRectangle width="87" height="40" as="alternateBounds" />
          </mxGeometry>
        </mxCell>
        <mxCell id="Wmc4pKRZCXl6si6PgpEI-153" value="" style="shape=tableRow;horizontal=0;startSize=0;swimlaneHead=0;swimlaneBody=0;strokeColor=inherit;top=0;left=0;bottom=0;right=0;collapsible=0;dropTarget=0;fillColor=none;points=[[0,0.5],[1,0.5]];portConstraint=eastwest;fontSize=16;" vertex="1" parent="Wmc4pKRZCXl6si6PgpEI-148">
          <mxGeometry y="70" width="274" height="40" as="geometry" />
        </mxCell>
        <mxCell id="Wmc4pKRZCXl6si6PgpEI-154" value="1" style="shape=partialRectangle;html=1;whiteSpace=wrap;connectable=0;strokeColor=inherit;overflow=hidden;fillColor=none;top=0;left=0;bottom=0;right=0;pointerEvents=1;fontSize=16;" vertex="1" parent="Wmc4pKRZCXl6si6PgpEI-153">
          <mxGeometry width="124" height="40" as="geometry">
            <mxRectangle width="124" height="40" as="alternateBounds" />
          </mxGeometry>
        </mxCell>
        <mxCell id="Wmc4pKRZCXl6si6PgpEI-155" value="" style="shape=partialRectangle;html=1;whiteSpace=wrap;connectable=0;strokeColor=inherit;overflow=hidden;fillColor=none;top=0;left=0;bottom=0;right=0;pointerEvents=1;fontSize=16;rowspan=1;colspan=2;" vertex="1" parent="Wmc4pKRZCXl6si6PgpEI-153">
          <mxGeometry x="124" width="150" height="40" as="geometry">
            <mxRectangle width="63" height="40" as="alternateBounds" />
          </mxGeometry>
        </mxCell>
        <mxCell id="Wmc4pKRZCXl6si6PgpEI-156" value="" style="shape=partialRectangle;html=1;whiteSpace=wrap;connectable=0;strokeColor=inherit;overflow=hidden;fillColor=none;top=0;left=0;bottom=0;right=0;pointerEvents=1;fontSize=16;" visible="0" vertex="1" parent="Wmc4pKRZCXl6si6PgpEI-153">
          <mxGeometry x="187" width="87" height="40" as="geometry">
            <mxRectangle width="87" height="40" as="alternateBounds" />
          </mxGeometry>
        </mxCell>
        <mxCell id="Wmc4pKRZCXl6si6PgpEI-157" value="Dono" style="shape=table;startSize=30;container=1;collapsible=0;childLayout=tableLayout;strokeColor=#9673a6;fontSize=16;fillColor=#e1d5e7;" vertex="1" parent="1">
          <mxGeometry x="2726" y="1125" width="274" height="110" as="geometry" />
        </mxCell>
        <mxCell id="Wmc4pKRZCXl6si6PgpEI-158" value="" style="shape=tableRow;horizontal=0;startSize=0;swimlaneHead=0;swimlaneBody=0;strokeColor=inherit;top=0;left=0;bottom=0;right=0;collapsible=0;dropTarget=0;fillColor=none;points=[[0,0.5],[1,0.5]];portConstraint=eastwest;fontSize=16;" vertex="1" parent="Wmc4pKRZCXl6si6PgpEI-157">
          <mxGeometry y="30" width="274" height="40" as="geometry" />
        </mxCell>
        <mxCell id="Wmc4pKRZCXl6si6PgpEI-159" value="IdDono" style="shape=partialRectangle;html=1;whiteSpace=wrap;connectable=0;strokeColor=inherit;overflow=hidden;fillColor=none;top=0;left=0;bottom=0;right=0;pointerEvents=1;fontSize=16;" vertex="1" parent="Wmc4pKRZCXl6si6PgpEI-158">
          <mxGeometry width="124" height="40" as="geometry">
            <mxRectangle width="124" height="40" as="alternateBounds" />
          </mxGeometry>
        </mxCell>
        <mxCell id="Wmc4pKRZCXl6si6PgpEI-160" value="Dono" style="shape=partialRectangle;html=1;whiteSpace=wrap;connectable=0;strokeColor=inherit;overflow=hidden;fillColor=none;top=0;left=0;bottom=0;right=0;pointerEvents=1;fontSize=16;rowspan=1;colspan=2;" vertex="1" parent="Wmc4pKRZCXl6si6PgpEI-158">
          <mxGeometry x="124" width="150" height="40" as="geometry">
            <mxRectangle width="63" height="40" as="alternateBounds" />
          </mxGeometry>
        </mxCell>
        <mxCell id="Wmc4pKRZCXl6si6PgpEI-161" value="" style="shape=partialRectangle;html=1;whiteSpace=wrap;connectable=0;strokeColor=inherit;overflow=hidden;fillColor=none;top=0;left=0;bottom=0;right=0;pointerEvents=1;fontSize=16;" visible="0" vertex="1" parent="Wmc4pKRZCXl6si6PgpEI-158">
          <mxGeometry x="187" width="87" height="40" as="geometry">
            <mxRectangle width="87" height="40" as="alternateBounds" />
          </mxGeometry>
        </mxCell>
        <mxCell id="Wmc4pKRZCXl6si6PgpEI-162" value="" style="shape=tableRow;horizontal=0;startSize=0;swimlaneHead=0;swimlaneBody=0;strokeColor=inherit;top=0;left=0;bottom=0;right=0;collapsible=0;dropTarget=0;fillColor=none;points=[[0,0.5],[1,0.5]];portConstraint=eastwest;fontSize=16;" vertex="1" parent="Wmc4pKRZCXl6si6PgpEI-157">
          <mxGeometry y="70" width="274" height="40" as="geometry" />
        </mxCell>
        <mxCell id="Wmc4pKRZCXl6si6PgpEI-163" value="1" style="shape=partialRectangle;html=1;whiteSpace=wrap;connectable=0;strokeColor=inherit;overflow=hidden;fillColor=none;top=0;left=0;bottom=0;right=0;pointerEvents=1;fontSize=16;" vertex="1" parent="Wmc4pKRZCXl6si6PgpEI-162">
          <mxGeometry width="124" height="40" as="geometry">
            <mxRectangle width="124" height="40" as="alternateBounds" />
          </mxGeometry>
        </mxCell>
        <mxCell id="Wmc4pKRZCXl6si6PgpEI-164" value="" style="shape=partialRectangle;html=1;whiteSpace=wrap;connectable=0;strokeColor=inherit;overflow=hidden;fillColor=none;top=0;left=0;bottom=0;right=0;pointerEvents=1;fontSize=16;rowspan=1;colspan=2;" vertex="1" parent="Wmc4pKRZCXl6si6PgpEI-162">
          <mxGeometry x="124" width="150" height="40" as="geometry">
            <mxRectangle width="63" height="40" as="alternateBounds" />
          </mxGeometry>
        </mxCell>
        <mxCell id="Wmc4pKRZCXl6si6PgpEI-165" value="" style="shape=partialRectangle;html=1;whiteSpace=wrap;connectable=0;strokeColor=inherit;overflow=hidden;fillColor=none;top=0;left=0;bottom=0;right=0;pointerEvents=1;fontSize=16;" visible="0" vertex="1" parent="Wmc4pKRZCXl6si6PgpEI-162">
          <mxGeometry x="187" width="87" height="40" as="geometry">
            <mxRectangle width="87" height="40" as="alternateBounds" />
          </mxGeometry>
        </mxCell>
        <mxCell id="Wmc4pKRZCXl6si6PgpEI-166" value="Raça" style="shape=table;startSize=30;container=1;collapsible=0;childLayout=tableLayout;strokeColor=#9673a6;fontSize=16;fillColor=#e1d5e7;" vertex="1" parent="1">
          <mxGeometry x="2723" y="1315" width="274" height="110" as="geometry" />
        </mxCell>
        <mxCell id="Wmc4pKRZCXl6si6PgpEI-167" value="" style="shape=tableRow;horizontal=0;startSize=0;swimlaneHead=0;swimlaneBody=0;strokeColor=inherit;top=0;left=0;bottom=0;right=0;collapsible=0;dropTarget=0;fillColor=none;points=[[0,0.5],[1,0.5]];portConstraint=eastwest;fontSize=16;" vertex="1" parent="Wmc4pKRZCXl6si6PgpEI-166">
          <mxGeometry y="30" width="274" height="40" as="geometry" />
        </mxCell>
        <mxCell id="Wmc4pKRZCXl6si6PgpEI-168" value="IdRaca" style="shape=partialRectangle;html=1;whiteSpace=wrap;connectable=0;strokeColor=inherit;overflow=hidden;fillColor=none;top=0;left=0;bottom=0;right=0;pointerEvents=1;fontSize=16;" vertex="1" parent="Wmc4pKRZCXl6si6PgpEI-167">
          <mxGeometry width="124" height="40" as="geometry">
            <mxRectangle width="124" height="40" as="alternateBounds" />
          </mxGeometry>
        </mxCell>
        <mxCell id="Wmc4pKRZCXl6si6PgpEI-169" value="Dono" style="shape=partialRectangle;html=1;whiteSpace=wrap;connectable=0;strokeColor=inherit;overflow=hidden;fillColor=none;top=0;left=0;bottom=0;right=0;pointerEvents=1;fontSize=16;rowspan=1;colspan=2;" vertex="1" parent="Wmc4pKRZCXl6si6PgpEI-167">
          <mxGeometry x="124" width="150" height="40" as="geometry">
            <mxRectangle width="63" height="40" as="alternateBounds" />
          </mxGeometry>
        </mxCell>
        <mxCell id="Wmc4pKRZCXl6si6PgpEI-170" value="" style="shape=partialRectangle;html=1;whiteSpace=wrap;connectable=0;strokeColor=inherit;overflow=hidden;fillColor=none;top=0;left=0;bottom=0;right=0;pointerEvents=1;fontSize=16;" visible="0" vertex="1" parent="Wmc4pKRZCXl6si6PgpEI-167">
          <mxGeometry x="187" width="87" height="40" as="geometry">
            <mxRectangle width="87" height="40" as="alternateBounds" />
          </mxGeometry>
        </mxCell>
        <mxCell id="Wmc4pKRZCXl6si6PgpEI-171" value="" style="shape=tableRow;horizontal=0;startSize=0;swimlaneHead=0;swimlaneBody=0;strokeColor=inherit;top=0;left=0;bottom=0;right=0;collapsible=0;dropTarget=0;fillColor=none;points=[[0,0.5],[1,0.5]];portConstraint=eastwest;fontSize=16;" vertex="1" parent="Wmc4pKRZCXl6si6PgpEI-166">
          <mxGeometry y="70" width="274" height="40" as="geometry" />
        </mxCell>
        <mxCell id="Wmc4pKRZCXl6si6PgpEI-172" value="1" style="shape=partialRectangle;html=1;whiteSpace=wrap;connectable=0;strokeColor=inherit;overflow=hidden;fillColor=none;top=0;left=0;bottom=0;right=0;pointerEvents=1;fontSize=16;" vertex="1" parent="Wmc4pKRZCXl6si6PgpEI-171">
          <mxGeometry width="124" height="40" as="geometry">
            <mxRectangle width="124" height="40" as="alternateBounds" />
          </mxGeometry>
        </mxCell>
        <mxCell id="Wmc4pKRZCXl6si6PgpEI-173" value="" style="shape=partialRectangle;html=1;whiteSpace=wrap;connectable=0;strokeColor=inherit;overflow=hidden;fillColor=none;top=0;left=0;bottom=0;right=0;pointerEvents=1;fontSize=16;rowspan=1;colspan=2;" vertex="1" parent="Wmc4pKRZCXl6si6PgpEI-171">
          <mxGeometry x="124" width="150" height="40" as="geometry">
            <mxRectangle width="63" height="40" as="alternateBounds" />
          </mxGeometry>
        </mxCell>
        <mxCell id="Wmc4pKRZCXl6si6PgpEI-174" value="" style="shape=partialRectangle;html=1;whiteSpace=wrap;connectable=0;strokeColor=inherit;overflow=hidden;fillColor=none;top=0;left=0;bottom=0;right=0;pointerEvents=1;fontSize=16;" visible="0" vertex="1" parent="Wmc4pKRZCXl6si6PgpEI-171">
          <mxGeometry x="187" width="87" height="40" as="geometry">
            <mxRectangle width="87" height="40" as="alternateBounds" />
          </mxGeometry>
        </mxCell>
      </root>
    </mxGraphModel>
  </diagram>
</mxfile>
